<svg id="svg" version="1.1" xmlns="http://www.w3.org/2000/svg" xmlns:xlink="http://www.w3.org/1999/xlink" width="400" height="94.34364994663821" viewBox="0, 0, 400,94.34364994663821"><g id="svgg"><path id="path0" d="M199.913 8.202 C 199.868 8.320,199.850 26.492,199.874 48.583 L 199.917 88.750 201.667 88.750 L 203.417 88.750 203.417 48.417 L 203.417 8.083 201.705 8.036 C 200.429 8.000,199.973 8.043,199.913 8.202 M242.012 22.144 C 241.921 22.315,241.644 23.196,241.397 24.102 C 240.936 25.800,240.713 26.585,240.245 28.167 C 240.096 28.671,239.909 29.346,239.829 29.667 C 239.564 30.739,239.200 32.063,238.456 34.667 C 238.050 36.087,237.624 37.625,237.510 38.083 C 237.395 38.542,237.198 39.254,237.072 39.667 C 236.850 40.395,236.595 41.287,236.167 42.833 C 236.053 43.246,235.865 43.921,235.750 44.333 C 235.635 44.746,235.459 45.383,235.359 45.750 C 235.259 46.117,234.988 47.054,234.757 47.833 C 234.527 48.612,234.037 50.337,233.670 51.667 C 233.303 52.996,232.918 54.383,232.814 54.750 C 232.488 55.902,232.222 56.863,231.752 58.583 C 231.502 59.500,231.195 60.587,231.070 61.000 C 230.945 61.413,230.732 62.163,230.596 62.667 C 230.460 63.171,230.092 64.521,229.779 65.667 C 229.465 66.813,229.047 68.350,228.849 69.083 C 228.464 70.515,228.246 71.279,227.588 73.509 C 227.356 74.292,227.167 75.061,227.167 75.217 C 227.167 75.480,227.780 75.500,235.650 75.500 L 244.134 75.500 244.502 74.292 C 244.830 73.218,245.007 72.591,245.504 70.750 C 245.578 70.475,245.949 69.162,246.327 67.833 C 246.705 66.504,247.126 65.004,247.261 64.500 C 247.797 62.509,248.224 61.244,248.399 61.128 C 248.500 61.060,250.930 61.004,253.798 61.003 C 266.685 60.996,274.447 58.069,279.466 51.322 C 281.059 49.181,281.431 48.587,282.335 46.750 C 283.181 45.033,283.586 43.967,284.492 41.083 C 285.147 38.997,285.384 34.041,284.920 32.100 C 283.567 26.433,279.185 23.098,271.761 22.083 C 268.672 21.660,242.242 21.715,242.012 22.144 M306.417 21.961 C 306.325 22.028,305.800 22.758,305.250 23.583 C 304.700 24.408,303.870 25.608,303.405 26.250 C 302.940 26.892,301.918 28.354,301.134 29.500 C 300.349 30.646,298.765 32.933,297.613 34.583 C 296.461 36.233,295.195 38.054,294.801 38.629 C 294.406 39.204,293.746 40.158,293.333 40.749 C 292.921 41.340,292.246 42.316,291.833 42.918 C 291.421 43.520,290.990 44.117,290.875 44.244 C 290.760 44.372,290.667 44.515,290.667 44.563 C 290.667 44.611,289.823 45.849,288.792 47.316 C 287.760 48.782,286.429 50.676,285.833 51.523 C 285.237 52.370,284.389 53.593,283.948 54.240 C 283.508 54.887,283.006 55.604,282.835 55.833 C 282.479 56.308,281.434 57.806,280.100 59.750 C 279.597 60.483,278.769 61.683,278.259 62.417 C 277.750 63.150,276.755 64.612,276.047 65.667 C 275.340 66.721,274.419 68.033,274.001 68.583 C 273.583 69.133,272.793 70.241,272.246 71.044 C 271.698 71.847,270.821 73.122,270.297 73.877 C 269.772 74.632,269.341 75.306,269.338 75.375 C 269.336 75.444,273.459 75.500,278.502 75.500 L 287.670 75.500 288.127 74.829 C 288.378 74.460,288.771 73.900,289.000 73.585 C 289.229 73.269,290.126 71.925,290.993 70.598 C 292.085 68.927,292.688 68.156,292.954 68.089 C 293.165 68.036,297.416 67.998,302.401 68.004 C 312.845 68.018,311.890 67.837,312.066 69.833 C 312.310 72.602,312.616 75.116,312.731 75.302 C 312.823 75.451,315.092 75.500,321.843 75.500 L 330.833 75.500 330.833 74.990 C 330.833 74.710,330.757 73.979,330.664 73.365 C 330.436 71.862,329.277 63.502,328.753 59.583 C 328.520 57.842,328.258 55.967,328.172 55.417 C 328.085 54.867,327.971 54.042,327.917 53.583 C 327.864 53.125,327.712 52.038,327.579 51.167 C 327.447 50.296,327.000 47.108,326.586 44.083 C 326.172 41.058,325.724 37.833,325.591 36.917 C 325.457 36.000,325.229 34.350,325.085 33.250 C 324.940 32.150,324.755 30.837,324.674 30.333 C 324.592 29.829,324.325 27.879,324.080 26.000 C 323.836 24.121,323.604 22.415,323.565 22.208 L 323.494 21.833 315.038 21.836 C 310.388 21.837,306.508 21.894,306.417 21.961 M333.837 22.042 C 333.838 22.156,334.181 23.375,334.598 24.750 C 335.015 26.125,335.421 27.475,335.500 27.750 C 335.578 28.025,335.913 29.150,336.244 30.250 C 336.575 31.350,337.222 33.525,337.683 35.083 C 338.144 36.642,338.585 38.104,338.664 38.333 C 338.742 38.563,338.934 39.200,339.089 39.750 C 339.245 40.300,339.467 41.050,339.584 41.417 C 340.039 42.849,341.258 46.876,341.753 48.583 C 341.912 49.133,342.288 50.371,342.589 51.333 C 344.336 56.933,344.278 56.196,343.252 59.833 C 342.826 61.346,342.415 62.808,342.340 63.083 C 342.264 63.358,342.087 63.996,341.946 64.500 C 341.317 66.750,340.985 67.946,340.188 70.833 C 339.721 72.529,339.262 74.147,339.169 74.428 C 338.785 75.592,338.050 75.500,347.730 75.500 C 354.511 75.500,356.497 75.454,356.630 75.292 C 356.777 75.112,358.870 67.853,360.102 63.250 C 362.089 55.822,361.400 57.134,366.306 51.438 C 369.431 47.809,369.142 48.148,371.030 45.904 C 375.294 40.835,378.087 37.534,378.895 36.608 C 379.693 35.693,382.651 32.220,383.223 31.526 C 383.936 30.662,384.847 29.591,386.583 27.576 C 389.703 23.956,391.167 22.174,391.167 21.993 C 391.167 21.893,387.652 21.833,381.765 21.833 L 372.363 21.833 371.397 23.125 C 370.866 23.835,369.563 25.504,368.502 26.833 C 367.442 28.162,366.093 29.887,365.507 30.667 C 364.920 31.446,364.188 32.383,363.881 32.750 C 363.264 33.487,360.748 36.673,359.356 38.481 C 358.418 39.698,358.076 39.826,357.901 39.023 C 357.849 38.781,357.690 38.208,357.549 37.750 C 357.407 37.292,357.199 36.617,357.086 36.250 C 356.973 35.883,356.674 34.871,356.422 34.000 C 356.169 33.129,355.896 32.286,355.815 32.127 C 355.733 31.968,355.667 31.741,355.667 31.623 C 355.667 31.504,355.480 30.809,355.251 30.079 C 355.023 29.348,354.714 28.337,354.565 27.833 C 354.416 27.329,354.235 26.729,354.163 26.500 C 354.090 26.271,353.829 25.408,353.582 24.583 C 353.335 23.758,353.017 22.802,352.875 22.458 L 352.616 21.833 343.225 21.833 C 335.821 21.833,333.834 21.877,333.837 22.042 M263.917 35.943 C 269.900 37.879,268.262 46.223,261.438 48.572 C 260.149 49.016,252.129 49.349,251.753 48.975 C 251.643 48.866,252.113 47.020,253.421 42.417 C 253.812 41.042,254.330 39.167,254.573 38.250 C 255.138 36.118,255.307 35.696,255.625 35.634 C 256.554 35.452,263.160 35.698,263.917 35.943 M309.401 45.052 C 309.461 45.802,309.579 46.942,309.664 47.583 C 309.748 48.225,309.904 49.650,310.011 50.750 C 310.118 51.850,310.308 53.530,310.435 54.484 C 310.606 55.767,310.617 56.275,310.479 56.442 C 310.204 56.773,300.697 56.773,300.570 56.442 C 300.522 56.318,301.900 54.086,303.630 51.483 C 305.361 48.880,307.248 46.024,307.822 45.137 C 309.078 43.197,309.252 43.188,309.401 45.052 " stroke="none" fill="#3a537c" fill-rule="evenodd"></path><path id="path1" d="M5.083 22.040 C 5.029 22.339,5.007 34.396,5.034 48.833 L 5.083 75.083 21.917 75.083 C 35.619 75.083,38.905 75.041,39.583 74.856 C 41.030 74.461,42.878 73.813,43.735 73.399 C 44.190 73.180,44.628 73.000,44.709 73.000 C 44.790 73.000,45.101 72.813,45.402 72.583 C 45.702 72.354,46.002 72.167,46.069 72.167 C 46.135 72.167,46.435 71.979,46.735 71.750 C 47.036 71.521,47.338 71.333,47.407 71.333 C 47.830 71.333,51.840 67.459,53.060 65.871 C 53.730 65.000,54.280 64.286,54.992 63.364 C 55.182 63.118,55.869 62.204,56.519 61.333 C 57.168 60.462,57.841 59.582,58.015 59.376 C 58.188 59.170,58.739 58.457,59.238 57.792 C 59.738 57.127,60.496 56.133,60.924 55.583 C 62.456 53.611,64.596 50.773,65.306 49.770 C 65.703 49.209,66.134 48.632,66.264 48.487 C 66.520 48.202,66.583 47.562,66.365 47.472 C 66.291 47.442,65.898 46.967,65.491 46.417 C 65.085 45.867,64.665 45.361,64.559 45.293 C 64.453 45.224,63.965 44.625,63.475 43.960 C 62.984 43.295,62.458 42.600,62.304 42.417 C 62.151 42.233,61.159 40.958,60.100 39.583 C 59.041 38.208,57.907 36.746,57.578 36.333 C 54.458 32.410,54.167 31.889,54.167 30.224 C 54.167 26.905,57.896 24.660,60.898 26.172 C 61.824 26.638,62.176 27.022,65.178 30.833 C 66.369 32.346,67.754 34.086,68.255 34.701 C 68.756 35.316,69.167 35.868,69.167 35.929 C 69.167 35.990,69.373 36.282,69.625 36.579 C 69.877 36.876,70.233 37.331,70.417 37.591 C 70.710 38.007,71.133 38.531,72.337 39.968 L 72.659 40.353 73.187 39.752 C 73.477 39.422,73.985 38.789,74.316 38.345 C 74.646 37.902,75.479 36.808,76.167 35.915 C 76.854 35.023,77.567 34.088,77.750 33.837 C 77.933 33.587,78.704 32.603,79.462 31.650 C 80.220 30.697,81.157 29.512,81.545 29.018 C 83.701 26.268,84.468 25.753,86.417 25.751 C 89.249 25.749,91.057 27.602,91.067 30.518 L 91.071 31.953 89.257 34.351 C 87.045 37.275,86.259 38.293,85.500 39.220 C 85.179 39.612,84.692 40.224,84.417 40.581 C 84.142 40.937,83.688 41.496,83.409 41.823 C 83.130 42.149,82.769 42.628,82.606 42.886 C 82.239 43.471,81.837 43.969,81.458 44.311 C 81.298 44.456,81.167 44.638,81.167 44.716 C 81.167 44.837,80.638 45.508,78.993 47.472 C 78.539 48.014,78.528 47.986,79.881 49.619 C 80.549 50.424,81.316 51.383,81.585 51.750 C 81.855 52.117,82.398 52.802,82.791 53.272 C 83.618 54.260,83.604 54.408,82.555 55.705 C 82.204 56.138,81.654 56.875,81.333 57.343 C 81.012 57.810,80.337 58.698,79.833 59.317 C 79.329 59.936,78.692 60.717,78.418 61.054 C 77.710 61.923,77.473 61.844,76.380 60.375 C 75.851 59.665,75.380 59.046,75.334 59.000 C 75.287 58.954,74.912 58.467,74.500 57.917 C 72.746 55.577,72.611 55.524,71.676 56.800 C 71.361 57.231,70.236 58.664,69.176 59.985 C 68.117 61.307,66.510 63.369,65.607 64.569 C 64.703 65.768,63.728 67.012,63.440 67.333 C 63.152 67.654,62.584 68.367,62.178 68.917 C 61.772 69.467,61.341 69.977,61.220 70.050 C 61.099 70.123,61.000 70.257,61.000 70.347 C 61.000 70.527,59.931 71.926,59.098 72.833 C 58.591 73.386,57.649 74.207,56.917 74.733 C 56.309 75.171,56.897 75.175,112.167 75.129 L 166.917 75.083 166.917 48.333 L 166.917 21.583 151.750 21.534 C 132.660 21.472,131.752 21.550,127.500 23.630 C 124.796 24.952,120.762 28.295,118.987 30.684 C 118.673 31.105,117.967 32.034,117.417 32.748 C 116.867 33.461,116.304 34.205,116.167 34.401 C 115.590 35.224,114.392 36.791,113.922 37.339 C 113.644 37.663,113.267 38.142,113.083 38.405 C 112.900 38.667,112.560 39.114,112.328 39.399 C 112.096 39.684,111.597 40.329,111.219 40.833 C 110.841 41.337,109.808 42.688,108.925 43.833 C 104.685 49.331,104.922 48.494,106.917 50.931 C 107.375 51.490,108.162 52.491,108.667 53.154 C 109.171 53.817,110.090 54.990,110.708 55.761 C 111.327 56.531,111.833 57.209,111.833 57.267 C 111.833 57.325,112.268 57.870,112.799 58.478 C 114.016 59.870,114.832 60.923,114.838 61.107 C 114.841 61.186,115.072 61.475,115.353 61.750 C 116.034 62.419,117.292 64.194,117.592 64.912 C 118.093 66.110,117.616 68.748,116.821 69.173 C 116.644 69.268,116.500 69.423,116.500 69.518 C 116.500 69.973,115.465 70.576,113.979 70.986 C 112.277 71.455,110.381 70.578,108.919 68.645 C 108.459 68.036,107.633 66.978,107.083 66.293 C 106.533 65.608,105.183 63.898,104.083 62.494 C 99.866 57.109,99.355 56.481,99.221 56.527 C 99.081 56.576,96.586 59.673,94.333 62.595 C 93.646 63.487,93.005 64.299,92.909 64.400 C 92.813 64.501,92.501 64.921,92.216 65.333 C 91.930 65.746,91.430 66.346,91.104 66.667 C 90.778 66.987,90.508 67.311,90.505 67.386 C 90.500 67.516,89.993 68.179,88.935 69.439 C 87.901 70.672,85.693 71.414,84.361 70.978 C 83.436 70.675,82.333 70.152,82.333 70.017 C 82.333 69.951,82.114 69.673,81.847 69.399 C 80.000 67.510,80.564 64.206,83.149 61.760 C 83.434 61.491,83.667 61.201,83.667 61.116 C 83.667 60.987,84.900 59.463,85.625 58.696 C 85.740 58.575,85.833 58.421,85.833 58.353 C 85.833 58.285,86.002 58.049,86.208 57.829 C 86.415 57.609,86.658 57.303,86.750 57.148 C 86.927 56.851,89.165 53.967,90.619 52.162 C 92.534 49.787,93.167 48.936,93.167 48.739 C 93.167 48.625,92.360 47.492,91.375 46.220 C 88.749 42.830,88.667 42.714,88.667 42.412 C 88.667 42.023,93.956 35.000,94.248 35.000 C 94.474 35.000,94.842 35.437,97.942 39.394 L 99.229 41.037 99.740 40.433 C 100.020 40.101,100.513 39.493,100.833 39.081 C 101.154 38.670,101.623 38.114,101.875 37.846 C 102.127 37.578,102.333 37.310,102.333 37.249 C 102.333 37.189,103.065 36.239,103.958 35.138 C 104.852 34.038,105.666 32.994,105.766 32.818 C 105.866 32.642,106.169 32.254,106.439 31.957 C 106.708 31.660,107.263 30.967,107.672 30.417 C 108.080 29.867,108.458 29.379,108.510 29.333 C 108.563 29.287,109.161 28.537,109.840 27.667 C 110.518 26.796,111.116 26.046,111.169 26.000 C 111.222 25.954,111.618 25.455,112.048 24.890 C 112.797 23.906,114.594 22.167,114.861 22.167 C 114.931 22.167,115.068 22.018,115.165 21.836 C 115.342 21.506,115.156 21.505,60.262 21.501 L 5.182 21.498 5.083 22.040 M34.667 25.916 C 38.085 26.398,40.447 27.132,42.500 28.352 C 42.637 28.434,42.900 28.572,43.083 28.660 C 44.624 29.393,47.432 31.752,49.373 33.945 C 50.611 35.343,53.000 39.303,53.000 39.958 C 53.000 40.050,53.163 40.490,53.362 40.937 C 53.560 41.384,53.776 42.012,53.841 42.333 C 53.905 42.654,54.124 43.704,54.326 44.667 C 54.840 47.118,54.694 51.539,54.027 53.692 C 53.932 53.999,53.740 54.625,53.601 55.083 C 52.846 57.568,51.194 60.818,49.916 62.333 C 49.013 63.403,46.562 65.833,46.386 65.833 C 46.265 65.833,46.167 65.899,46.167 65.980 C 46.167 66.111,44.444 67.500,44.281 67.500 C 44.244 67.500,43.585 67.862,42.816 68.304 C 38.328 70.882,29.986 72.058,26.725 70.573 C 26.436 70.441,26.104 70.333,25.987 70.333 C 25.675 70.333,24.708 70.005,23.704 69.558 C 23.220 69.343,22.676 69.167,22.495 69.167 C 22.315 69.167,22.167 69.106,22.167 69.032 C 22.167 68.958,21.875 68.769,21.519 68.612 C 20.040 67.959,16.152 65.044,15.333 63.974 C 15.104 63.674,14.598 63.068,14.208 62.626 C 13.819 62.184,13.500 61.764,13.500 61.693 C 13.500 61.621,13.360 61.412,13.188 61.228 C 12.500 60.489,10.912 57.404,10.412 55.833 C 10.251 55.329,10.055 54.786,9.977 54.627 C 9.898 54.468,9.833 54.182,9.833 53.991 C 9.833 53.801,9.753 53.494,9.654 53.310 C 9.021 52.126,9.018 44.879,9.651 43.696 C 9.751 43.509,9.833 43.181,9.833 42.967 C 9.833 42.753,9.987 42.167,10.175 41.664 C 10.363 41.161,10.635 40.412,10.778 40.000 C 10.922 39.587,11.247 38.875,11.501 38.417 C 11.755 37.958,12.178 37.195,12.440 36.721 C 12.702 36.247,13.087 35.647,13.295 35.388 C 13.504 35.129,14.029 34.476,14.462 33.938 C 17.653 29.977,22.436 27.138,27.553 26.167 C 30.533 25.601,32.054 25.548,34.667 25.916 M144.583 26.168 C 149.247 27.123,153.487 29.468,156.485 32.750 C 158.726 35.202,161.052 38.919,161.412 40.623 C 161.474 40.920,161.595 41.206,161.679 41.258 C 161.764 41.310,161.833 41.524,161.833 41.732 C 161.833 41.941,161.890 42.167,161.958 42.236 C 162.717 42.991,162.970 49.936,162.355 53.129 C 161.857 55.712,160.234 59.433,158.761 61.368 C 155.189 66.060,151.303 68.853,146.417 70.242 C 145.867 70.399,145.229 70.590,145.000 70.667 C 143.413 71.199,136.632 71.208,135.250 70.680 C 134.476 70.384,133.188 70.000,132.967 70.000 C 132.836 70.000,132.340 69.813,131.865 69.583 C 131.390 69.354,130.908 69.165,130.792 69.163 C 129.600 69.144,124.150 64.861,122.302 62.491 C 122.056 62.175,121.700 61.717,121.511 61.474 C 121.321 61.230,121.167 60.987,121.167 60.932 C 121.167 60.878,120.918 60.478,120.614 60.042 C 120.310 59.606,119.815 58.688,119.514 58.000 C 119.213 57.313,118.851 56.491,118.709 56.174 C 117.604 53.702,117.052 48.995,117.496 45.833 C 117.797 43.695,118.261 41.676,118.510 41.425 C 118.596 41.338,118.667 41.100,118.667 40.897 C 118.667 40.693,118.772 40.315,118.900 40.055 C 119.029 39.796,119.252 39.321,119.397 39.000 C 119.654 38.431,119.912 37.957,120.898 36.250 C 125.208 28.783,135.649 24.339,144.583 26.168 M29.833 35.321 C 18.902 37.256,14.821 49.935,22.571 57.880 C 23.351 58.679,24.070 59.333,24.169 59.333 C 24.268 59.333,24.760 59.596,25.261 59.917 C 25.763 60.237,26.280 60.500,26.410 60.500 C 26.540 60.500,26.689 60.568,26.740 60.650 C 26.873 60.866,29.040 61.500,29.643 61.500 C 29.922 61.500,30.539 61.583,31.015 61.685 C 31.908 61.877,35.200 61.518,35.873 61.156 C 36.032 61.070,36.242 61.000,36.340 61.000 C 36.438 61.000,36.966 60.778,37.512 60.507 C 44.034 57.271,46.783 50.308,44.253 43.427 C 44.020 42.791,43.730 42.154,43.609 42.010 C 43.488 41.867,43.193 41.412,42.953 41.000 C 42.288 39.856,40.895 38.466,39.417 37.469 C 38.167 36.626,37.469 36.299,35.417 35.598 C 34.472 35.275,31.050 35.105,29.833 35.321 M138.000 35.271 C 133.442 36.177,129.912 38.766,128.142 42.500 C 127.303 44.270,127.167 44.638,127.167 45.140 C 127.167 45.419,127.092 45.693,127.000 45.750 C 126.792 45.879,126.773 50.943,126.981 51.071 C 127.062 51.122,127.180 51.508,127.243 51.929 C 127.306 52.351,127.540 53.038,127.762 53.456 C 127.985 53.874,128.167 54.318,128.167 54.441 C 128.167 54.565,128.242 54.667,128.333 54.667 C 128.425 54.667,128.500 54.791,128.500 54.943 C 128.500 55.300,129.663 56.848,130.741 57.926 C 131.873 59.059,132.709 59.646,134.167 60.332 C 134.907 60.680,135.153 60.787,136.028 61.136 C 137.799 61.843,142.369 61.846,144.128 61.141 C 144.379 61.041,144.733 60.899,144.917 60.826 C 148.507 59.403,151.469 56.375,152.575 53.000 C 152.740 52.496,152.952 51.896,153.045 51.667 C 153.306 51.027,153.397 46.879,153.169 46.000 C 153.063 45.587,152.917 44.950,152.846 44.583 C 152.209 41.292,147.968 36.816,144.656 35.939 C 144.158 35.807,143.528 35.612,143.257 35.507 C 142.744 35.307,138.725 35.127,138.000 35.271 " stroke="none" fill="#e6112b" fill-rule="evenodd"></path><path id="path2" d="M12.167 8.235 C 11.938 8.357,11.401 8.508,10.975 8.570 C 9.629 8.765,6.000 11.783,6.000 12.708 C 6.000 12.893,5.839 13.304,5.643 13.621 C 5.242 14.271,4.997 16.375,5.300 16.563 C 5.425 16.640,116.394 16.711,166.792 16.667 C 167.137 16.667,167.034 15.556,166.554 14.102 C 165.585 11.162,163.394 9.180,160.199 8.352 L 158.842 8.000 85.713 8.007 C 25.136 8.012,12.512 8.051,12.167 8.235 M5.278 80.278 C 3.990 81.566,7.530 87.161,10.068 87.850 C 10.427 87.948,10.911 88.152,11.144 88.305 C 11.539 88.564,16.762 88.583,85.743 88.583 L 159.917 88.583 160.917 88.192 C 163.952 87.003,165.956 85.006,166.488 82.639 C 166.572 82.266,166.721 81.879,166.820 81.780 C 167.189 81.411,167.034 80.505,166.572 80.329 C 166.087 80.145,5.462 80.094,5.278 80.278 " stroke="none" fill="#fac32a" fill-rule="evenodd"></path><path id="path3" d="M0.000 47.167 L 0.000 94.333 200.000 94.333 L 400.000 94.333 400.000 47.167 L 400.000 0.000 200.000 0.000 L 0.000 0.000 0.000 47.167 M160.917 8.221 C 164.041 9.324,165.889 11.174,166.849 14.159 C 167.372 15.787,167.447 16.486,167.133 16.800 C 166.842 17.092,5.325 17.092,5.033 16.800 C 4.768 16.534,4.783 15.447,5.067 14.417 C 6.012 10.981,8.929 8.435,12.667 7.783 C 12.896 7.743,46.046 7.719,86.333 7.730 L 159.583 7.750 160.917 8.221 M203.625 48.323 C 203.653 75.384,203.612 88.764,203.499 88.834 C 203.184 89.029,200.133 89.013,199.895 88.815 C 199.648 88.610,199.536 8.186,199.783 7.939 C 199.847 7.875,200.728 7.844,201.741 7.870 L 203.583 7.917 203.625 48.323 M115.749 21.333 C 116.272 21.532,116.188 21.710,115.313 22.263 C 114.528 22.759,113.151 24.097,112.241 25.250 C 111.880 25.708,111.494 26.196,111.385 26.333 C 111.276 26.471,110.679 27.221,110.060 28.000 C 109.441 28.779,108.878 29.456,108.809 29.505 C 108.740 29.553,108.211 30.239,107.633 31.028 C 107.056 31.817,105.961 33.240,105.199 34.190 C 104.438 35.140,103.214 36.704,102.478 37.667 C 101.743 38.629,100.719 39.898,100.202 40.486 L 99.264 41.554 98.217 40.402 C 97.641 39.769,97.169 39.203,97.168 39.146 C 97.167 39.089,96.792 38.573,96.333 38.000 C 95.875 37.427,95.499 36.911,95.499 36.854 C 95.498 36.797,95.221 36.459,94.884 36.104 L 94.272 35.457 93.678 36.122 C 93.351 36.488,92.596 37.454,92.000 38.269 C 91.404 39.083,90.874 39.787,90.822 39.833 C 90.678 39.959,89.443 41.713,89.226 42.099 C 88.991 42.518,89.053 42.636,90.439 44.398 C 91.023 45.141,91.558 45.825,91.627 45.917 C 92.214 46.695,92.952 47.625,93.137 47.818 C 93.941 48.656,93.690 49.090,89.292 54.462 C 88.581 55.329,87.999 56.087,87.999 56.145 C 87.998 56.203,87.735 56.526,87.415 56.864 C 87.095 57.202,86.833 57.529,86.833 57.591 C 86.833 57.653,86.215 58.474,85.458 59.414 C 83.335 62.055,83.104 62.354,82.794 62.861 C 82.635 63.121,82.441 63.333,82.364 63.333 C 82.286 63.333,81.985 63.794,81.694 64.357 C 80.169 67.314,82.076 70.575,85.333 70.581 C 87.215 70.584,87.965 70.149,89.496 68.167 C 89.814 67.754,90.119 67.379,90.174 67.333 C 90.228 67.287,90.602 66.800,91.006 66.250 C 91.409 65.700,91.966 64.981,92.244 64.651 C 92.993 63.764,93.205 63.493,94.002 62.406 C 94.401 61.862,94.771 61.379,94.826 61.333 C 94.881 61.288,95.186 60.913,95.504 60.501 C 95.823 60.088,96.175 59.638,96.286 59.501 C 96.398 59.363,96.660 59.012,96.869 58.721 C 97.802 57.426,99.049 56.000,99.250 56.000 C 99.449 56.000,100.664 57.386,101.634 58.721 C 102.480 59.885,103.434 61.112,103.665 61.333 C 103.713 61.379,104.083 61.867,104.488 62.417 C 104.893 62.967,105.570 63.829,105.992 64.333 C 106.415 64.837,107.091 65.700,107.494 66.250 C 107.898 66.800,108.271 67.287,108.323 67.333 C 108.376 67.379,108.638 67.717,108.906 68.083 C 111.475 71.595,115.552 71.504,117.084 67.901 C 117.734 66.373,117.424 65.047,115.971 63.134 C 115.145 62.047,111.631 57.532,110.547 56.167 C 110.147 55.663,109.677 55.063,109.502 54.833 C 109.327 54.604,108.786 53.918,108.300 53.308 C 107.814 52.698,107.042 51.703,106.583 51.097 C 106.125 50.490,105.545 49.752,105.294 49.455 C 105.044 49.159,104.838 48.842,104.838 48.750 C 104.837 48.563,107.318 45.200,108.403 43.917 C 108.791 43.458,109.159 42.971,109.222 42.833 C 109.284 42.696,109.674 42.171,110.087 41.667 C 110.923 40.648,112.684 38.365,114.333 36.162 C 114.929 35.366,115.867 34.128,116.417 33.410 C 116.967 32.693,117.784 31.613,118.232 31.011 C 119.179 29.740,122.694 26.206,123.618 25.596 C 123.965 25.367,124.550 24.970,124.917 24.714 C 125.283 24.459,125.808 24.139,126.083 24.004 C 126.358 23.868,126.846 23.601,127.167 23.410 C 127.960 22.936,129.754 22.209,130.667 21.991 C 131.079 21.893,131.867 21.691,132.417 21.542 C 133.538 21.240,166.906 21.006,167.198 21.298 C 167.338 21.438,167.425 75.297,167.286 75.437 C 167.196 75.526,55.797 75.519,55.707 75.429 C 55.594 75.316,56.000 74.667,56.185 74.667 C 56.916 74.667,58.926 72.561,61.577 69.020 C 61.856 68.647,62.338 68.058,63.977 66.083 C 64.129 65.900,64.831 64.962,65.537 63.999 C 66.242 63.036,67.123 61.952,67.493 61.590 C 67.864 61.228,68.167 60.872,68.167 60.798 C 68.167 60.686,70.716 57.427,71.007 57.167 C 71.059 57.121,71.348 56.734,71.651 56.307 C 72.350 55.321,72.791 55.183,73.283 55.795 C 75.213 58.194,75.984 59.182,76.369 59.750 C 77.104 60.834,77.574 61.328,77.751 61.202 C 78.004 61.021,79.103 59.635,80.613 57.593 C 81.363 56.580,82.214 55.434,82.504 55.047 L 83.031 54.344 82.649 53.797 C 82.439 53.496,82.135 53.100,81.974 52.917 C 81.812 52.733,81.187 51.946,80.584 51.167 C 79.982 50.387,79.229 49.421,78.911 49.019 C 78.161 48.069,78.177 47.922,79.170 46.652 C 82.012 43.019,83.919 40.598,85.000 39.250 C 85.514 38.608,86.305 37.596,86.757 37.000 C 87.209 36.404,87.670 35.804,87.780 35.667 C 91.343 31.231,91.667 29.703,89.523 27.444 C 87.131 24.923,84.738 25.571,81.622 29.584 C 80.112 31.529,77.438 34.947,75.757 37.083 C 75.107 37.908,74.450 38.771,74.297 39.000 C 72.963 40.992,72.604 41.016,71.228 39.203 C 70.057 37.661,68.825 36.115,68.676 36.000 C 68.616 35.954,68.388 35.654,68.169 35.333 C 67.950 35.012,67.558 34.487,67.296 34.167 C 67.035 33.846,66.768 33.508,66.702 33.417 C 66.542 33.192,65.051 31.300,64.358 30.442 C 64.051 30.061,63.563 29.457,63.275 29.099 C 60.786 26.013,59.098 25.354,56.833 26.585 C 53.932 28.162,53.809 30.995,56.498 34.356 C 56.912 34.873,57.438 35.546,57.667 35.852 C 57.896 36.157,58.386 36.784,58.756 37.245 C 59.125 37.706,60.207 39.096,61.158 40.333 C 62.919 42.622,64.615 44.772,64.917 45.096 C 65.008 45.194,65.252 45.494,65.457 45.762 C 65.663 46.031,66.054 46.538,66.326 46.890 C 67.197 48.016,67.248 47.885,64.555 51.427 C 63.195 53.215,61.846 55.021,61.555 55.441 C 61.265 55.861,60.890 56.366,60.722 56.565 C 60.554 56.763,59.967 57.486,59.417 58.171 C 58.867 58.856,58.378 59.454,58.330 59.500 C 58.282 59.546,58.100 59.806,57.926 60.079 C 57.752 60.352,57.547 60.652,57.470 60.746 C 57.301 60.951,56.445 62.064,55.944 62.728 C 55.745 62.991,55.393 63.441,55.161 63.728 C 54.929 64.015,54.323 64.813,53.813 65.500 C 52.597 67.142,50.560 69.294,49.094 70.488 C 48.029 71.354,45.418 73.167,45.234 73.167 C 45.193 73.167,44.525 73.467,43.750 73.833 C 42.975 74.200,42.250 74.500,42.139 74.500 C 42.029 74.500,41.521 74.645,41.011 74.821 C 40.501 74.998,39.553 75.222,38.905 75.318 C 37.165 75.577,5.212 75.579,4.900 75.319 C 4.572 75.047,4.547 21.409,4.875 21.277 C 5.296 21.107,115.302 21.163,115.749 21.333 M271.812 21.918 C 281.070 23.235,285.565 27.991,285.279 36.167 C 285.184 38.882,284.857 40.654,283.970 43.250 C 283.348 45.071,281.689 48.574,281.109 49.289 C 280.904 49.543,280.595 49.973,280.424 50.244 C 279.076 52.379,276.210 55.108,273.514 56.822 C 270.345 58.837,267.707 59.755,261.917 60.857 C 261.351 60.965,258.171 61.091,254.590 61.149 L 248.263 61.250 248.151 61.750 C 248.036 62.262,247.726 63.372,247.245 65.000 C 247.096 65.504,246.909 66.179,246.829 66.500 C 246.522 67.743,246.080 69.337,245.582 71.000 C 245.431 71.504,245.242 72.217,245.162 72.583 C 245.082 72.950,244.844 73.775,244.633 74.417 L 244.250 75.583 235.704 75.627 C 228.182 75.665,227.146 75.639,227.060 75.416 C 226.973 75.188,227.181 74.318,227.937 71.750 C 228.184 70.909,228.606 69.402,229.406 66.500 C 229.790 65.106,230.397 62.929,230.823 61.417 C 231.388 59.411,231.555 58.808,231.771 58.000 C 231.905 57.496,232.082 56.858,232.163 56.583 C 232.245 56.308,232.432 55.633,232.580 55.083 C 232.727 54.533,232.925 53.821,233.020 53.500 C 233.114 53.179,233.280 52.567,233.388 52.139 C 233.495 51.711,233.640 51.305,233.708 51.236 C 233.777 51.167,233.834 50.955,233.835 50.764 C 233.837 50.573,233.993 49.929,234.183 49.333 C 234.515 48.291,234.897 46.932,235.659 44.083 C 235.855 43.350,236.201 42.112,236.427 41.333 C 236.654 40.554,236.910 39.654,236.998 39.333 C 237.086 39.012,237.282 38.300,237.434 37.750 C 237.586 37.200,237.804 36.412,237.918 36.000 C 238.032 35.587,238.205 34.950,238.303 34.583 C 238.400 34.217,238.662 33.279,238.883 32.500 C 239.105 31.721,239.418 30.596,239.578 30.000 C 239.739 29.404,239.928 28.767,239.999 28.583 C 240.070 28.400,240.333 27.462,240.584 26.500 C 241.247 23.954,241.798 22.025,241.916 21.834 C 242.101 21.535,269.667 21.614,271.812 21.918 M323.695 22.333 C 323.764 22.654,323.941 23.817,324.088 24.917 C 324.549 28.381,324.639 29.039,324.895 30.833 C 325.194 32.924,325.644 36.110,326.344 41.083 C 326.809 44.387,327.050 46.140,327.499 49.500 C 327.579 50.096,327.839 51.971,328.077 53.667 C 328.715 58.211,329.321 62.596,329.667 65.167 C 329.747 65.762,329.933 67.075,330.080 68.083 C 330.480 70.822,330.638 71.947,330.825 73.387 C 330.918 74.104,331.025 74.741,331.061 74.803 C 331.098 74.866,331.064 75.086,330.985 75.293 L 330.843 75.670 321.721 75.626 L 312.598 75.583 312.481 75.000 C 312.417 74.679,312.235 73.104,312.078 71.500 C 311.921 69.896,311.721 68.493,311.633 68.383 C 311.375 68.061,293.202 68.075,292.750 68.397 C 292.567 68.528,291.779 69.621,291.000 70.827 C 290.221 72.032,289.152 73.615,288.626 74.344 L 287.668 75.669 278.473 75.626 C 272.240 75.597,269.259 75.527,269.219 75.408 C 269.187 75.312,269.669 74.513,270.289 73.632 C 270.909 72.751,271.849 71.404,272.376 70.640 C 272.904 69.875,273.968 68.350,274.740 67.250 C 275.512 66.150,276.653 64.500,277.275 63.583 C 277.898 62.667,279.198 60.792,280.164 59.417 C 281.830 57.048,283.017 55.331,284.628 52.963 C 285.019 52.387,285.432 51.804,285.545 51.667 C 285.658 51.529,285.894 51.194,286.070 50.921 C 286.246 50.648,286.457 50.348,286.539 50.254 C 286.659 50.116,289.691 45.793,290.342 44.833 C 290.782 44.184,293.553 40.174,293.970 39.583 C 294.229 39.217,294.926 38.204,295.519 37.333 C 296.112 36.462,297.194 34.899,297.924 33.859 C 298.653 32.819,299.430 31.694,299.650 31.359 C 299.870 31.024,300.096 30.712,300.152 30.667 C 300.207 30.621,300.608 30.058,301.042 29.417 C 301.964 28.053,303.414 26.005,303.661 25.715 C 303.756 25.605,303.833 25.473,303.833 25.422 C 303.833 25.372,304.321 24.657,304.917 23.833 C 305.512 23.010,306.000 22.275,306.000 22.201 C 306.000 21.687,306.428 21.664,314.986 21.707 L 323.570 21.750 323.695 22.333 M352.812 21.891 C 352.914 22.014,353.047 22.370,353.106 22.683 C 353.165 22.995,353.265 23.325,353.328 23.417 C 353.390 23.508,353.578 24.071,353.745 24.667 C 353.912 25.262,354.216 26.275,354.421 26.917 C 354.625 27.558,354.920 28.533,355.076 29.083 C 355.232 29.633,355.423 30.271,355.500 30.500 C 355.577 30.729,355.766 31.367,355.920 31.917 C 356.074 32.467,356.262 33.067,356.338 33.250 C 356.470 33.567,356.704 34.342,357.170 36.000 C 358.169 39.554,358.248 39.645,359.250 38.385 C 361.058 36.113,362.296 34.526,362.734 33.920 C 363.000 33.551,363.450 32.981,363.734 32.651 C 364.416 31.859,364.630 31.591,365.508 30.415 C 365.916 29.870,367.300 28.097,368.583 26.476 C 369.867 24.855,371.235 23.110,371.624 22.598 L 372.332 21.667 381.823 21.667 C 388.008 21.667,391.350 21.725,391.417 21.834 C 391.505 21.977,390.128 23.736,388.481 25.583 C 387.769 26.383,386.699 27.637,385.000 29.665 C 384.129 30.705,383.074 31.937,382.656 32.403 C 382.238 32.869,381.439 33.813,380.881 34.500 C 380.323 35.188,379.728 35.900,379.558 36.084 C 379.389 36.268,378.842 36.905,378.343 37.501 C 377.845 38.096,377.302 38.733,377.138 38.917 C 376.568 39.554,376.028 40.186,375.500 40.833 C 375.208 41.191,374.822 41.656,374.641 41.867 C 373.926 42.702,373.712 42.956,372.849 44.000 C 372.356 44.596,371.784 45.254,371.577 45.464 C 371.371 45.673,370.800 46.338,370.309 46.942 C 369.486 47.956,367.316 50.510,366.920 50.931 C 366.827 51.030,366.488 51.441,366.167 51.844 C 365.846 52.246,365.171 53.036,364.667 53.599 C 362.784 55.701,362.161 56.576,361.889 57.500 C 361.121 60.113,360.805 61.231,360.404 62.750 C 359.990 64.319,359.834 64.879,359.244 66.917 C 358.971 67.859,358.242 70.453,358.003 71.333 C 357.661 72.589,356.960 74.936,356.821 75.292 L 356.674 75.667 347.832 75.667 C 340.133 75.667,338.977 75.634,338.894 75.417 C 338.816 75.215,339.522 72.402,340.317 69.750 C 340.768 68.245,342.203 63.117,342.766 61.000 C 343.026 60.021,343.339 58.953,343.780 57.543 C 344.080 56.583,344.012 56.196,343.060 53.448 C 342.844 52.824,342.667 52.145,342.667 51.940 C 342.667 51.735,342.604 51.495,342.528 51.408 C 342.452 51.321,342.256 50.762,342.093 50.167 C 341.930 49.571,341.736 48.933,341.661 48.750 C 341.586 48.567,341.400 47.967,341.246 47.417 C 341.092 46.867,340.904 46.229,340.830 46.000 C 340.755 45.771,340.566 45.133,340.411 44.583 C 340.255 44.033,340.033 43.283,339.916 42.917 C 339.799 42.550,339.503 41.575,339.257 40.750 C 339.012 39.925,338.671 38.800,338.500 38.250 C 338.330 37.700,338.027 36.688,337.828 36.000 C 337.442 34.668,337.148 33.696,336.365 31.167 C 336.096 30.296,335.746 29.133,335.587 28.583 C 335.428 28.033,335.165 27.171,335.003 26.667 C 334.841 26.162,334.631 25.488,334.536 25.167 C 334.442 24.846,334.201 24.037,334.000 23.369 C 333.799 22.702,333.678 22.045,333.729 21.911 C 333.864 21.560,352.521 21.541,352.812 21.891 M28.750 26.324 C 28.475 26.394,27.783 26.540,27.212 26.648 C 10.372 29.839,3.727 51.655,15.839 63.989 C 16.777 64.945,19.849 67.333,20.139 67.333 C 20.223 67.333,20.371 67.428,20.468 67.545 C 20.881 68.042,24.730 69.715,25.931 69.919 C 26.290 69.980,26.883 70.131,27.250 70.256 C 30.645 71.406,37.812 70.553,41.479 68.563 C 41.880 68.345,42.277 68.167,42.361 68.167 C 42.516 68.167,42.612 68.107,44.487 66.839 C 51.748 61.927,55.883 51.849,53.846 44.028 C 53.758 43.692,53.566 42.929,53.418 42.333 C 53.271 41.737,53.071 41.063,52.974 40.833 C 52.259 39.138,52.246 39.112,51.432 37.601 C 50.235 35.382,47.484 32.178,45.644 30.860 C 41.990 28.243,39.180 27.013,35.500 26.422 C 33.849 26.157,29.645 26.096,28.750 26.324 M137.309 26.246 C 137.266 26.290,136.710 26.401,136.073 26.492 C 134.569 26.710,132.065 27.489,131.167 28.020 C 131.029 28.101,130.729 28.246,130.500 28.342 C 129.168 28.901,126.820 30.392,125.902 31.262 C 125.618 31.530,125.131 31.958,124.818 32.213 C 122.197 34.350,119.470 38.965,118.395 43.083 C 117.846 45.187,117.687 51.391,118.141 53.000 C 119.118 56.464,120.638 59.844,121.885 61.326 C 122.132 61.619,122.333 61.924,122.333 62.004 C 122.333 62.547,126.961 66.661,128.583 67.560 C 128.858 67.713,129.196 67.906,129.333 67.989 C 133.211 70.336,140.363 71.429,144.583 70.320 C 144.950 70.224,145.662 70.045,146.167 69.923 C 147.653 69.563,151.140 68.017,151.532 67.545 C 151.629 67.428,151.785 67.333,151.881 67.333 C 152.520 67.333,156.840 63.422,157.954 61.833 C 161.497 56.784,163.243 50.310,162.336 45.584 C 161.014 38.690,158.035 33.793,153.000 30.236 C 151.505 29.179,147.936 27.333,147.389 27.333 C 147.212 27.333,146.995 27.272,146.908 27.197 C 146.710 27.026,145.501 26.735,143.667 26.414 C 142.358 26.186,137.498 26.057,137.309 26.246 M36.350 35.464 C 39.430 36.541,43.667 40.003,43.667 41.444 C 43.667 41.566,43.730 41.667,43.808 41.667 C 44.212 41.667,45.302 45.063,45.485 46.890 C 46.325 55.312,40.262 62.000,31.786 62.000 C 30.110 62.000,28.015 61.690,27.377 61.348 C 27.216 61.261,26.729 61.054,26.296 60.887 C 23.156 59.677,19.776 55.883,18.861 52.542 C 18.754 52.152,18.573 51.515,18.458 51.125 C 18.104 49.919,18.219 46.314,18.660 44.833 C 20.158 39.802,23.829 36.317,29.083 34.941 C 30.254 34.634,34.941 34.972,36.350 35.464 M144.601 35.448 C 149.023 37.044,151.703 39.976,153.486 45.167 C 155.257 50.321,151.753 57.959,146.421 60.570 C 142.951 62.270,137.548 62.540,135.037 61.138 C 134.736 60.971,134.415 60.833,134.323 60.833 C 132.965 60.833,129.156 57.157,127.934 54.667 C 126.145 51.023,125.884 46.718,127.261 43.579 C 129.196 39.166,131.771 36.758,136.085 35.327 C 138.236 34.613,142.454 34.673,144.601 35.448 M255.367 36.110 C 255.278 36.279,255.050 37.017,254.858 37.750 C 254.667 38.483,254.350 39.646,254.154 40.333 C 253.817 41.515,253.465 42.783,252.674 45.667 C 252.485 46.354,252.213 47.308,252.068 47.786 C 251.924 48.263,251.854 48.732,251.913 48.827 C 252.246 49.366,260.591 48.938,261.706 48.326 C 261.865 48.238,262.070 48.167,262.162 48.167 C 262.812 48.167,265.381 46.033,265.987 44.991 C 268.192 41.193,267.877 37.965,265.167 36.583 C 264.846 36.420,264.433 36.203,264.250 36.102 C 263.594 35.740,255.557 35.748,255.367 36.110 M306.061 48.043 C 304.516 50.357,303.176 52.378,303.084 52.535 C 302.992 52.692,302.410 53.610,301.792 54.575 C 301.173 55.540,300.667 56.368,300.667 56.415 C 300.667 56.621,310.298 56.499,310.376 56.292 C 310.419 56.177,310.323 54.921,310.162 53.500 C 309.911 51.290,309.622 48.606,309.234 44.878 C 309.093 43.526,309.043 43.576,306.061 48.043 M167.029 80.109 C 168.104 81.082,165.800 85.688,163.417 87.330 C 160.775 89.150,167.374 89.013,84.833 88.962 L 11.917 88.917 10.500 88.348 C 7.417 87.111,5.160 84.371,4.898 81.545 C 4.817 80.678,4.845 80.270,4.997 80.087 C 5.334 79.680,166.579 79.702,167.029 80.109 " stroke="none" fill="#fbfbfa" fill-rule="evenodd"></path><path id="path4" d="M12.667 7.783 C 8.929 8.435,6.012 10.981,5.067 14.417 C 4.783 15.447,4.768 16.534,5.033 16.800 C 5.325 17.092,166.842 17.092,167.133 16.800 C 167.447 16.486,167.372 15.787,166.849 14.159 C 165.889 11.174,164.041 9.324,160.917 8.221 L 159.583 7.750 86.333 7.730 C 46.046 7.719,12.896 7.743,12.667 7.783 M199.783 7.939 C 199.562 8.161,199.645 88.578,199.867 88.800 C 199.988 88.922,200.494 88.988,201.158 88.971 L 202.250 88.941 201.083 88.846 L 199.917 88.750 199.917 48.417 L 199.917 8.083 201.667 8.083 L 203.417 8.083 203.417 48.409 L 203.417 88.735 203.000 88.851 C 202.666 88.944,202.650 88.970,202.917 88.981 C 203.100 88.989,203.344 88.935,203.459 88.862 C 203.625 88.757,203.659 80.539,203.625 48.323 L 203.583 7.917 201.741 7.870 C 200.728 7.844,199.847 7.875,199.783 7.939 M160.199 8.352 C 163.394 9.180,165.585 11.162,166.554 14.102 C 167.034 15.556,167.137 16.667,166.792 16.667 C 116.394 16.711,5.425 16.640,5.300 16.563 C 4.997 16.375,5.242 14.271,5.643 13.621 C 5.839 13.304,6.000 12.893,6.000 12.708 C 6.000 11.783,9.629 8.765,10.975 8.570 C 11.401 8.508,11.938 8.357,12.167 8.235 C 12.512 8.051,25.136 8.012,85.713 8.007 L 158.842 8.000 160.199 8.352 M4.875 21.277 C 4.547 21.409,4.572 75.047,4.900 75.319 C 5.212 75.579,37.165 75.577,38.905 75.318 C 39.553 75.222,40.501 74.998,41.011 74.821 C 41.521 74.645,42.029 74.500,42.139 74.500 C 42.250 74.500,42.975 74.200,43.750 73.833 C 44.525 73.467,45.193 73.167,45.234 73.167 C 45.418 73.167,48.029 71.354,49.094 70.488 C 50.560 69.294,52.597 67.142,53.813 65.500 C 54.323 64.813,54.929 64.015,55.161 63.728 C 55.393 63.441,55.745 62.991,55.944 62.728 C 56.445 62.064,57.301 60.951,57.470 60.746 C 57.547 60.652,57.752 60.352,57.926 60.079 C 58.100 59.806,58.282 59.546,58.330 59.500 C 58.378 59.454,58.867 58.856,59.417 58.171 C 59.967 57.486,60.554 56.763,60.722 56.565 C 60.890 56.366,61.265 55.861,61.555 55.441 C 61.846 55.021,63.195 53.215,64.555 51.427 C 67.248 47.885,67.197 48.016,66.326 46.890 C 66.054 46.538,65.663 46.031,65.457 45.762 C 65.252 45.494,65.008 45.194,64.917 45.096 C 64.615 44.772,62.919 42.622,61.158 40.333 C 60.207 39.096,59.125 37.706,58.756 37.245 C 58.386 36.784,57.896 36.157,57.667 35.852 C 57.438 35.546,56.912 34.873,56.498 34.356 C 53.809 30.995,53.932 28.162,56.833 26.585 C 59.098 25.354,60.786 26.013,63.275 29.099 C 63.563 29.457,64.051 30.061,64.358 30.442 C 65.051 31.300,66.542 33.192,66.702 33.417 C 66.768 33.508,67.035 33.846,67.296 34.167 C 67.558 34.487,67.950 35.012,68.169 35.333 C 68.388 35.654,68.616 35.954,68.676 36.000 C 68.825 36.115,70.057 37.661,71.228 39.203 C 72.604 41.016,72.963 40.992,74.297 39.000 C 74.450 38.771,75.107 37.908,75.757 37.083 C 77.438 34.947,80.112 31.529,81.622 29.584 C 84.738 25.571,87.131 24.923,89.523 27.444 C 91.667 29.703,91.343 31.231,87.780 35.667 C 87.670 35.804,87.209 36.404,86.757 37.000 C 86.305 37.596,85.514 38.608,85.000 39.250 C 84.113 40.356,82.981 41.790,80.921 44.417 C 77.885 48.288,78.045 47.922,78.911 49.019 C 79.229 49.421,79.982 50.387,80.584 51.167 C 81.187 51.946,81.812 52.733,81.974 52.917 C 82.135 53.100,82.439 53.496,82.649 53.797 L 83.031 54.344 82.504 55.047 C 82.214 55.434,81.363 56.580,80.613 57.593 C 79.103 59.635,78.004 61.021,77.751 61.202 C 77.574 61.328,77.104 60.834,76.369 59.750 C 75.984 59.182,75.213 58.194,73.283 55.795 C 72.791 55.183,72.350 55.321,71.651 56.307 C 71.348 56.734,71.059 57.121,71.007 57.167 C 70.716 57.427,68.167 60.686,68.167 60.798 C 68.167 60.872,67.864 61.228,67.493 61.590 C 67.123 61.952,66.242 63.036,65.537 63.999 C 64.831 64.962,64.129 65.900,63.977 66.083 C 62.338 68.058,61.856 68.647,61.577 69.020 C 58.926 72.561,56.916 74.667,56.185 74.667 C 56.000 74.667,55.594 75.316,55.707 75.429 C 55.797 75.519,167.196 75.526,167.286 75.437 C 167.425 75.297,167.338 21.438,167.198 21.298 C 166.906 21.006,133.538 21.240,132.417 21.542 C 131.867 21.691,131.079 21.893,130.667 21.991 C 129.754 22.209,127.960 22.936,127.167 23.410 C 126.846 23.601,126.358 23.868,126.083 24.004 C 125.808 24.139,125.283 24.459,124.917 24.714 C 124.550 24.970,123.965 25.367,123.618 25.596 C 122.694 26.206,119.179 29.740,118.232 31.011 C 117.784 31.613,116.967 32.693,116.417 33.410 C 115.867 34.128,114.929 35.366,114.333 36.162 C 112.684 38.365,110.923 40.648,110.087 41.667 C 109.674 42.171,109.284 42.696,109.222 42.833 C 109.159 42.971,108.791 43.458,108.403 43.917 C 107.318 45.200,104.837 48.563,104.838 48.750 C 104.838 48.842,105.044 49.159,105.294 49.455 C 105.545 49.752,106.125 50.490,106.583 51.097 C 107.042 51.703,107.814 52.698,108.300 53.308 C 108.786 53.918,109.327 54.604,109.502 54.833 C 109.677 55.063,110.147 55.663,110.547 56.167 C 111.631 57.532,115.145 62.047,115.971 63.134 C 117.424 65.047,117.734 66.373,117.084 67.901 C 115.552 71.504,111.475 71.595,108.906 68.083 C 108.638 67.717,108.376 67.379,108.323 67.333 C 108.271 67.287,107.898 66.800,107.494 66.250 C 107.091 65.700,106.415 64.837,105.992 64.333 C 105.570 63.829,104.893 62.967,104.488 62.417 C 104.083 61.867,103.713 61.379,103.665 61.333 C 103.434 61.112,102.480 59.885,101.634 58.721 C 100.664 57.386,99.449 56.000,99.250 56.000 C 99.049 56.000,97.802 57.426,96.869 58.721 C 96.660 59.012,96.398 59.363,96.286 59.501 C 96.175 59.638,95.823 60.088,95.504 60.501 C 95.186 60.913,94.881 61.288,94.826 61.333 C 94.771 61.379,94.401 61.862,94.002 62.406 C 93.205 63.493,92.993 63.764,92.244 64.651 C 91.966 64.981,91.409 65.700,91.006 66.250 C 90.602 66.800,90.228 67.287,90.174 67.333 C 90.119 67.379,89.814 67.754,89.496 68.167 C 87.965 70.149,87.215 70.584,85.333 70.581 C 82.076 70.575,80.169 67.314,81.694 64.357 C 81.985 63.794,82.286 63.333,82.364 63.333 C 82.441 63.333,82.635 63.121,82.794 62.861 C 83.104 62.354,83.335 62.055,85.458 59.414 C 86.215 58.474,86.833 57.653,86.833 57.591 C 86.833 57.529,87.095 57.202,87.415 56.864 C 87.735 56.526,87.998 56.203,87.999 56.145 C 87.999 56.087,88.581 55.329,89.292 54.462 C 93.690 49.090,93.941 48.656,93.137 47.818 C 92.952 47.625,92.214 46.695,91.627 45.917 C 91.558 45.825,91.023 45.141,90.439 44.398 C 89.053 42.636,88.991 42.518,89.226 42.099 C 89.443 41.713,90.678 39.959,90.822 39.833 C 90.874 39.787,91.404 39.083,92.000 38.269 C 92.596 37.454,93.351 36.488,93.678 36.122 L 94.272 35.457 94.884 36.104 C 95.221 36.459,95.498 36.797,95.499 36.854 C 95.499 36.911,95.875 37.427,96.333 38.000 C 96.792 38.573,97.167 39.089,97.168 39.146 C 97.169 39.203,97.641 39.769,98.217 40.402 L 99.264 41.554 100.202 40.486 C 100.719 39.898,101.743 38.629,102.478 37.667 C 103.214 36.704,104.438 35.140,105.199 34.190 C 105.961 33.240,107.056 31.817,107.633 31.028 C 108.211 30.239,108.740 29.553,108.809 29.505 C 108.878 29.456,109.441 28.779,110.060 28.000 C 110.679 27.221,111.276 26.471,111.385 26.333 C 111.494 26.196,111.880 25.708,112.241 25.250 C 113.151 24.097,114.528 22.759,115.313 22.263 C 116.188 21.710,116.272 21.532,115.749 21.333 C 115.302 21.163,5.296 21.107,4.875 21.277 M115.165 21.836 C 115.068 22.018,114.931 22.167,114.861 22.167 C 114.594 22.167,112.797 23.906,112.048 24.890 C 111.618 25.455,111.222 25.954,111.169 26.000 C 111.116 26.046,110.518 26.796,109.840 27.667 C 109.161 28.537,108.563 29.287,108.510 29.333 C 108.458 29.379,108.080 29.867,107.672 30.417 C 107.263 30.967,106.708 31.660,106.439 31.957 C 106.169 32.254,105.866 32.642,105.766 32.818 C 105.666 32.994,104.852 34.038,103.958 35.138 C 103.065 36.239,102.333 37.189,102.333 37.249 C 102.333 37.310,102.127 37.578,101.875 37.846 C 101.623 38.114,101.154 38.670,100.833 39.081 C 100.513 39.493,100.020 40.101,99.740 40.433 L 99.229 41.037 97.942 39.394 C 94.842 35.437,94.474 35.000,94.248 35.000 C 93.956 35.000,88.667 42.023,88.667 42.412 C 88.667 42.714,88.749 42.830,91.375 46.220 C 92.360 47.492,93.167 48.625,93.167 48.739 C 93.167 48.936,92.534 49.787,90.619 52.162 C 89.165 53.967,86.927 56.851,86.750 57.148 C 86.658 57.303,86.415 57.609,86.208 57.829 C 86.002 58.049,85.833 58.285,85.833 58.353 C 85.833 58.421,85.740 58.575,85.625 58.696 C 84.900 59.463,83.667 60.987,83.667 61.116 C 83.667 61.201,83.434 61.491,83.149 61.760 C 80.564 64.206,80.000 67.510,81.847 69.399 C 82.114 69.673,82.333 69.951,82.333 70.017 C 82.333 70.152,83.436 70.675,84.361 70.978 C 85.693 71.414,87.901 70.672,88.935 69.439 C 89.993 68.179,90.500 67.516,90.505 67.386 C 90.508 67.311,90.778 66.987,91.104 66.667 C 91.430 66.346,91.930 65.746,92.216 65.333 C 92.501 64.921,92.813 64.501,92.909 64.400 C 93.005 64.299,93.646 63.487,94.333 62.595 C 96.586 59.673,99.081 56.576,99.221 56.527 C 99.355 56.481,99.866 57.109,104.083 62.494 C 105.183 63.898,106.533 65.608,107.083 66.293 C 107.633 66.978,108.459 68.036,108.919 68.645 C 110.381 70.578,112.277 71.455,113.979 70.986 C 115.465 70.576,116.500 69.973,116.500 69.518 C 116.500 69.423,116.644 69.268,116.821 69.173 C 117.616 68.748,118.093 66.110,117.592 64.912 C 117.292 64.194,116.034 62.419,115.353 61.750 C 115.072 61.475,114.841 61.186,114.838 61.107 C 114.832 60.923,114.016 59.870,112.799 58.478 C 112.268 57.870,111.833 57.325,111.833 57.267 C 111.833 57.209,111.327 56.531,110.708 55.761 C 110.090 54.990,109.171 53.817,108.667 53.154 C 108.162 52.491,107.375 51.490,106.917 50.931 C 104.922 48.494,104.685 49.331,108.925 43.833 C 109.808 42.688,110.841 41.337,111.219 40.833 C 111.597 40.329,112.096 39.684,112.328 39.399 C 112.560 39.114,112.900 38.667,113.083 38.405 C 113.267 38.142,113.644 37.663,113.922 37.339 C 114.392 36.791,115.590 35.224,116.167 34.401 C 116.304 34.205,116.867 33.461,117.417 32.748 C 117.967 32.034,118.673 31.105,118.987 30.684 C 120.762 28.295,124.796 24.952,127.500 23.630 C 131.752 21.550,132.660 21.472,151.750 21.534 L 166.917 21.583 166.917 48.333 L 166.917 75.083 112.167 75.129 C 56.897 75.175,56.309 75.171,56.917 74.733 C 57.649 74.207,58.591 73.386,59.098 72.833 C 59.931 71.926,61.000 70.527,61.000 70.347 C 61.000 70.257,61.099 70.123,61.220 70.050 C 61.341 69.977,61.772 69.467,62.178 68.917 C 62.584 68.367,63.152 67.654,63.440 67.333 C 63.728 67.012,64.703 65.768,65.607 64.569 C 66.510 63.369,68.117 61.307,69.176 59.985 C 70.236 58.664,71.361 57.231,71.676 56.800 C 72.611 55.524,72.746 55.577,74.500 57.917 C 74.912 58.467,75.287 58.954,75.334 59.000 C 75.380 59.046,75.851 59.665,76.380 60.375 C 77.473 61.844,77.710 61.923,78.418 61.054 C 78.692 60.717,79.329 59.936,79.833 59.317 C 80.337 58.698,81.012 57.810,81.333 57.343 C 81.654 56.875,82.204 56.138,82.555 55.705 C 83.604 54.408,83.618 54.260,82.791 53.272 C 82.398 52.802,81.855 52.117,81.585 51.750 C 81.316 51.383,80.549 50.424,79.881 49.619 C 78.528 47.986,78.539 48.014,78.993 47.472 C 80.638 45.508,81.167 44.837,81.167 44.716 C 81.167 44.638,81.298 44.456,81.458 44.311 C 81.837 43.969,82.239 43.471,82.606 42.886 C 82.769 42.628,83.130 42.149,83.409 41.823 C 83.688 41.496,84.142 40.937,84.417 40.581 C 84.692 40.224,85.179 39.612,85.500 39.220 C 86.259 38.293,87.045 37.275,89.257 34.351 L 91.071 31.953 91.067 30.518 C 91.057 27.602,89.249 25.749,86.417 25.751 C 84.468 25.753,83.701 26.268,81.545 29.018 C 81.157 29.512,80.220 30.697,79.462 31.650 C 78.704 32.603,77.933 33.587,77.750 33.837 C 77.567 34.088,76.854 35.023,76.167 35.915 C 75.479 36.808,74.646 37.902,74.316 38.345 C 73.985 38.789,73.477 39.422,73.187 39.752 L 72.659 40.353 72.337 39.968 C 71.133 38.531,70.710 38.007,70.417 37.591 C 70.233 37.331,69.877 36.876,69.625 36.579 C 69.373 36.282,69.167 35.990,69.167 35.929 C 69.167 35.868,68.756 35.316,68.255 34.701 C 67.754 34.086,66.369 32.346,65.178 30.833 C 62.176 27.022,61.824 26.638,60.898 26.172 C 57.896 24.660,54.167 26.905,54.167 30.224 C 54.167 31.889,54.458 32.410,57.578 36.333 C 57.907 36.746,59.041 38.208,60.100 39.583 C 61.159 40.958,62.151 42.233,62.304 42.417 C 62.458 42.600,62.984 43.295,63.475 43.960 C 63.965 44.625,64.453 45.224,64.559 45.293 C 64.665 45.361,65.085 45.867,65.491 46.417 C 65.898 46.967,66.291 47.442,66.365 47.472 C 66.583 47.562,66.520 48.202,66.264 48.487 C 66.134 48.632,65.703 49.209,65.306 49.770 C 64.596 50.773,62.456 53.611,60.924 55.583 C 60.496 56.133,59.738 57.127,59.238 57.792 C 58.739 58.457,58.188 59.170,58.015 59.376 C 57.841 59.582,57.168 60.462,56.519 61.333 C 55.869 62.204,55.182 63.118,54.992 63.364 C 54.280 64.286,53.730 65.000,53.060 65.871 C 51.840 67.459,47.830 71.333,47.407 71.333 C 47.338 71.333,47.036 71.521,46.735 71.750 C 46.435 71.979,46.135 72.167,46.069 72.167 C 46.002 72.167,45.702 72.354,45.402 72.583 C 45.101 72.813,44.790 73.000,44.709 73.000 C 44.628 73.000,44.190 73.180,43.735 73.399 C 42.878 73.813,41.030 74.461,39.583 74.856 C 38.905 75.041,35.619 75.083,21.917 75.083 L 5.083 75.083 5.034 48.833 C 5.007 34.396,5.029 22.339,5.083 22.040 L 5.182 21.498 60.262 21.501 C 115.156 21.505,115.342 21.506,115.165 21.836 M241.922 21.824 C 241.699 22.185,240.620 26.176,240.719 26.275 C 240.755 26.311,240.953 25.720,241.157 24.962 C 241.362 24.204,241.655 23.208,241.809 22.750 L 242.087 21.917 256.335 21.917 C 264.172 21.917,271.108 21.968,271.750 22.031 C 272.764 22.131,272.829 22.122,272.250 21.964 C 271.341 21.716,242.073 21.581,241.922 21.824 M306.201 21.865 C 306.091 21.976,306.000 22.132,306.000 22.212 C 306.000 22.292,306.118 22.239,306.262 22.095 C 306.580 21.777,323.400 21.688,323.557 22.004 C 323.604 22.098,323.622 22.079,323.599 21.962 C 323.537 21.660,306.502 21.564,306.201 21.865 M333.734 21.899 C 333.630 22.169,333.977 23.578,334.114 23.442 C 334.164 23.392,334.122 23.110,334.019 22.817 C 333.917 22.524,333.833 22.182,333.833 22.058 C 333.833 21.872,335.448 21.833,343.220 21.833 L 352.606 21.833 352.888 22.375 C 353.108 22.797,353.147 22.824,353.065 22.500 C 352.845 21.631,353.267 21.667,343.224 21.667 C 335.335 21.667,333.809 21.704,333.734 21.899 M371.624 22.598 C 371.235 23.110,369.867 24.855,368.583 26.476 C 367.300 28.097,365.916 29.870,365.508 30.415 C 364.645 31.570,364.431 31.840,363.738 32.651 C 363.457 32.981,363.016 33.550,362.759 33.917 L 362.291 34.583 362.771 34.055 C 363.525 33.223,364.353 32.198,365.507 30.667 C 366.093 29.887,367.442 28.162,368.502 26.833 C 369.563 25.504,370.866 23.835,371.397 23.125 L 372.363 21.833 381.765 21.833 C 387.652 21.833,391.167 21.893,391.167 21.993 C 391.167 22.174,389.703 23.956,386.583 27.576 C 384.819 29.622,383.929 30.670,383.223 31.528 C 382.170 32.808,378.885 36.645,377.190 38.573 C 376.631 39.209,376.216 39.771,376.267 39.823 C 376.319 39.874,376.464 39.766,376.589 39.583 C 376.715 39.400,376.957 39.100,377.127 38.917 C 377.297 38.733,377.845 38.096,378.343 37.501 C 378.842 36.905,379.389 36.268,379.558 36.084 C 379.728 35.900,380.323 35.188,380.881 34.500 C 381.439 33.813,382.238 32.869,382.656 32.403 C 383.074 31.937,384.129 30.705,385.000 29.665 C 386.699 27.637,387.769 26.383,388.481 25.583 C 390.128 23.736,391.505 21.977,391.417 21.834 C 391.350 21.725,388.008 21.667,381.823 21.667 L 372.332 21.667 371.624 22.598 M273.500 22.333 C 273.729 22.407,274.067 22.469,274.250 22.472 L 274.583 22.477 274.250 22.333 C 274.067 22.255,273.729 22.192,273.500 22.195 L 273.083 22.200 273.500 22.333 M275.250 22.755 C 275.617 22.887,275.992 22.990,276.083 22.984 C 276.379 22.964,275.262 22.515,274.917 22.515 C 274.733 22.515,274.883 22.623,275.250 22.755 M305.500 23.000 C 305.304 23.275,305.181 23.500,305.227 23.500 C 305.273 23.500,305.471 23.275,305.667 23.000 C 305.862 22.725,305.985 22.500,305.939 22.500 C 305.894 22.500,305.696 22.725,305.500 23.000 M323.696 23.083 C 323.690 23.358,323.748 23.883,323.824 24.250 L 323.962 24.917 323.961 24.250 C 323.961 23.883,323.903 23.358,323.833 23.083 L 323.706 22.583 323.696 23.083 M276.667 23.202 C 276.896 23.301,277.552 23.592,278.125 23.849 C 278.698 24.106,279.167 24.277,279.167 24.230 C 279.167 24.103,276.723 22.998,276.469 23.011 C 276.349 23.017,276.438 23.103,276.667 23.202 M304.421 24.516 C 304.085 24.984,303.848 25.403,303.893 25.449 C 303.939 25.494,304.179 25.206,304.427 24.807 C 304.674 24.409,304.952 23.990,305.042 23.875 C 305.133 23.760,305.168 23.667,305.119 23.667 C 305.071 23.667,304.757 24.049,304.421 24.516 M334.271 24.167 C 334.385 24.828,334.662 25.438,334.649 25.000 C 334.645 24.863,334.535 24.488,334.405 24.167 L 334.170 23.583 334.271 24.167 M280.333 25.104 C 280.654 25.356,281.435 26.092,282.068 26.740 C 282.701 27.387,283.139 27.766,283.042 27.582 C 282.811 27.145,281.079 25.510,280.333 25.024 L 279.750 24.644 280.333 25.104 M324.042 25.583 C 324.044 25.950,324.078 26.080,324.118 25.873 C 324.158 25.666,324.156 25.366,324.115 25.206 C 324.073 25.047,324.040 25.217,324.042 25.583 M334.677 25.513 C 334.671 25.658,334.851 26.295,335.077 26.930 C 335.303 27.564,335.487 27.971,335.486 27.833 C 335.484 27.475,334.690 25.197,334.677 25.513 M29.750 25.781 C 23.427 26.592,18.082 29.444,14.462 33.938 C 14.029 34.476,13.504 35.129,13.295 35.388 C 13.087 35.647,12.702 36.247,12.440 36.721 C 12.178 37.195,11.755 37.958,11.501 38.417 C 11.247 38.875,10.922 39.587,10.778 40.000 C 10.635 40.412,10.363 41.161,10.175 41.664 C 9.987 42.167,9.833 42.753,9.833 42.967 C 9.833 43.181,9.751 43.509,9.651 43.696 C 9.018 44.879,9.021 52.126,9.654 53.310 C 9.753 53.494,9.833 53.801,9.833 53.991 C 9.833 54.182,9.898 54.468,9.977 54.627 C 10.055 54.786,10.251 55.329,10.412 55.833 C 10.912 57.404,12.500 60.489,13.188 61.228 C 13.360 61.412,13.500 61.621,13.500 61.693 C 13.500 61.764,13.819 62.184,14.208 62.626 C 14.598 63.068,15.104 63.674,15.333 63.974 C 16.152 65.044,20.040 67.959,21.519 68.612 C 21.875 68.769,22.167 68.958,22.167 69.032 C 22.167 69.106,22.315 69.167,22.495 69.167 C 22.676 69.167,23.220 69.343,23.704 69.558 C 24.708 70.005,25.675 70.333,25.987 70.333 C 26.104 70.333,26.436 70.441,26.725 70.573 C 29.986 72.058,38.328 70.882,42.816 68.304 C 43.585 67.862,44.244 67.500,44.281 67.500 C 44.444 67.500,46.167 66.111,46.167 65.980 C 46.167 65.899,46.265 65.833,46.386 65.833 C 46.562 65.833,49.013 63.403,49.916 62.333 C 51.194 60.818,52.846 57.568,53.601 55.083 C 53.740 54.625,53.932 53.999,54.027 53.692 C 54.694 51.539,54.840 47.118,54.326 44.667 C 54.124 43.704,53.905 42.654,53.841 42.333 C 53.776 42.012,53.560 41.384,53.362 40.937 C 53.163 40.490,53.000 40.050,53.000 39.958 C 53.000 37.665,46.541 30.306,43.083 28.660 C 42.900 28.572,42.637 28.434,42.500 28.352 C 39.349 26.480,33.498 25.300,29.750 25.781 M137.083 25.914 C 130.407 26.963,123.837 31.158,120.898 36.250 C 119.912 37.957,119.654 38.431,119.397 39.000 C 119.252 39.321,119.029 39.796,118.900 40.055 C 118.772 40.315,118.667 40.693,118.667 40.897 C 118.667 41.100,118.596 41.338,118.510 41.425 C 118.261 41.676,117.797 43.695,117.496 45.833 C 117.052 48.995,117.604 53.702,118.709 56.174 C 118.851 56.491,119.213 57.313,119.514 58.000 C 119.815 58.688,120.310 59.606,120.614 60.042 C 120.918 60.478,121.167 60.878,121.167 60.932 C 121.167 60.987,121.321 61.230,121.511 61.474 C 121.700 61.717,122.056 62.175,122.302 62.491 C 124.150 64.861,129.600 69.144,130.792 69.163 C 130.908 69.165,131.390 69.354,131.865 69.583 C 132.340 69.813,132.836 70.000,132.967 70.000 C 133.188 70.000,134.476 70.384,135.250 70.680 C 136.632 71.208,143.413 71.199,145.000 70.667 C 145.229 70.590,145.867 70.399,146.417 70.242 C 151.303 68.853,155.189 66.060,158.761 61.368 C 160.234 59.433,161.857 55.712,162.355 53.129 C 162.970 49.936,162.717 42.991,161.958 42.236 C 161.890 42.167,161.833 41.941,161.833 41.732 C 161.833 41.524,161.764 41.310,161.679 41.258 C 161.595 41.206,161.474 40.920,161.412 40.623 C 161.052 38.919,158.726 35.202,156.485 32.750 C 151.821 27.644,143.880 24.847,137.083 25.914 M303.299 26.168 C 302.934 26.810,303.042 26.809,303.500 26.167 C 303.696 25.892,303.795 25.667,303.720 25.668 C 303.645 25.668,303.456 25.893,303.299 26.168 M35.500 26.422 C 39.180 27.013,41.990 28.243,45.644 30.860 C 47.484 32.178,50.235 35.382,51.432 37.601 C 52.246 39.112,52.259 39.138,52.974 40.833 C 53.071 41.063,53.271 41.737,53.418 42.333 C 53.566 42.929,53.758 43.692,53.846 44.028 C 55.883 51.849,51.748 61.927,44.487 66.839 C 42.612 68.107,42.516 68.167,42.361 68.167 C 42.277 68.167,41.880 68.345,41.479 68.563 C 37.812 70.553,30.645 71.406,27.250 70.256 C 26.883 70.131,26.290 69.980,25.931 69.919 C 24.730 69.715,20.881 68.042,20.468 67.545 C 20.371 67.428,20.223 67.333,20.139 67.333 C 19.849 67.333,16.777 64.945,15.839 63.989 C 3.727 51.655,10.372 29.839,27.212 26.648 C 27.783 26.540,28.475 26.394,28.750 26.324 C 29.645 26.096,33.849 26.157,35.500 26.422 M143.667 26.414 C 145.501 26.735,146.710 27.026,146.908 27.197 C 146.995 27.272,147.212 27.333,147.389 27.333 C 147.936 27.333,151.505 29.179,153.000 30.236 C 158.035 33.793,161.014 38.690,162.336 45.584 C 163.243 50.310,161.497 56.784,157.954 61.833 C 156.840 63.422,152.520 67.333,151.881 67.333 C 151.785 67.333,151.629 67.428,151.532 67.545 C 151.140 68.017,147.653 69.563,146.167 69.923 C 145.662 70.045,144.950 70.224,144.583 70.320 C 140.363 71.429,133.211 70.336,129.333 67.989 C 129.196 67.906,128.858 67.713,128.583 67.560 C 126.961 66.661,122.333 62.547,122.333 62.004 C 122.333 61.924,122.132 61.619,121.885 61.326 C 120.638 59.844,119.118 56.464,118.141 53.000 C 117.687 51.391,117.846 45.187,118.395 43.083 C 119.470 38.965,122.197 34.350,124.818 32.213 C 125.131 31.958,125.618 31.530,125.902 31.262 C 126.820 30.392,129.168 28.901,130.500 28.342 C 130.729 28.246,131.029 28.101,131.167 28.020 C 132.065 27.489,134.569 26.710,136.073 26.492 C 136.710 26.401,137.266 26.290,137.309 26.246 C 137.498 26.057,142.358 26.186,143.667 26.414 M324.285 27.333 C 324.336 27.929,324.405 28.448,324.439 28.486 C 324.550 28.612,324.463 27.259,324.327 26.750 C 324.243 26.435,324.227 26.651,324.285 27.333 M240.429 26.929 C 240.367 27.173,240.355 27.410,240.400 27.456 C 240.446 27.502,240.534 27.339,240.595 27.095 C 240.657 26.851,240.669 26.614,240.623 26.568 C 240.578 26.522,240.490 26.684,240.429 26.929 M354.341 27.023 C 354.337 27.172,354.443 27.547,354.577 27.856 C 354.892 28.581,354.899 28.280,354.588 27.417 C 354.456 27.050,354.345 26.873,354.341 27.023 M301.801 28.292 C 301.483 28.662,301.290 29.000,301.395 29.000 C 301.440 29.000,301.638 28.775,301.833 28.500 C 302.222 27.955,302.202 27.825,301.801 28.292 M335.500 28.325 C 335.500 28.413,335.567 28.657,335.650 28.867 C 335.732 29.078,335.888 29.576,335.995 29.975 C 336.102 30.373,336.227 30.662,336.273 30.616 C 336.367 30.522,335.696 28.167,335.576 28.167 C 335.534 28.167,335.500 28.238,335.500 28.325 M354.838 28.833 C 354.838 28.971,354.911 29.196,355.000 29.333 C 355.144 29.556,355.162 29.556,355.162 29.333 C 355.162 29.196,355.089 28.971,355.000 28.833 C 354.856 28.611,354.838 28.611,354.838 28.833 M324.539 29.250 C 324.539 29.525,324.597 29.975,324.667 30.250 L 324.794 30.750 324.794 30.250 C 324.794 29.975,324.737 29.525,324.667 29.250 L 324.539 28.750 324.539 29.250 M300.712 29.875 C 300.460 30.265,300.208 30.621,300.152 30.667 C 300.096 30.712,299.870 31.025,299.650 31.362 C 299.430 31.698,298.496 33.048,297.574 34.362 C 295.954 36.672,295.297 37.694,295.984 36.833 C 296.979 35.590,301.394 29.167,301.255 29.167 C 301.209 29.167,300.965 29.485,300.712 29.875 M239.534 30.120 C 239.248 31.073,239.300 31.389,239.601 30.530 C 239.740 30.134,239.827 29.730,239.794 29.631 C 239.761 29.532,239.644 29.753,239.534 30.120 M284.390 30.415 C 284.588 30.918,284.771 31.268,284.797 31.191 C 284.849 31.036,284.221 29.500,284.105 29.500 C 284.064 29.500,284.192 29.912,284.390 30.415 M324.879 31.500 C 324.879 31.912,324.911 32.081,324.951 31.875 C 324.991 31.669,324.991 31.331,324.951 31.125 C 324.911 30.919,324.879 31.087,324.879 31.500 M238.852 32.556 C 238.643 33.259,238.510 33.928,238.557 34.042 C 238.611 34.177,238.645 34.157,238.654 33.986 C 238.661 33.841,238.821 33.253,239.009 32.679 C 239.197 32.106,239.324 31.556,239.291 31.457 C 239.258 31.359,239.061 31.853,238.852 32.556 M284.852 31.833 C 284.860 31.971,284.927 32.271,285.000 32.500 L 285.133 32.917 285.148 32.500 C 285.155 32.271,285.089 31.971,285.000 31.833 C 284.856 31.611,284.840 31.611,284.852 31.833 M325.055 32.917 C 325.110 33.283,325.238 34.258,325.339 35.083 C 325.578 37.043,325.786 38.185,325.812 37.680 C 325.840 37.152,325.164 32.441,325.045 32.333 C 324.995 32.287,324.999 32.550,325.055 32.917 M336.836 32.764 C 336.837 32.940,336.915 33.196,337.008 33.333 C 337.131 33.516,337.147 33.448,337.065 33.083 C 336.928 32.471,336.832 32.337,336.836 32.764 M285.232 35.417 C 285.233 36.700,285.259 37.203,285.291 36.534 C 285.322 35.866,285.322 34.816,285.290 34.201 C 285.258 33.586,285.232 34.133,285.232 35.417 M356.201 33.333 C 356.283 33.579,356.582 34.554,357.007 35.959 C 357.124 36.349,357.256 36.633,357.299 36.590 C 357.343 36.546,357.302 36.302,357.208 36.047 C 357.114 35.792,356.904 35.096,356.741 34.500 C 356.577 33.904,356.370 33.342,356.281 33.250 C 356.173 33.140,356.146 33.169,356.201 33.333 M238.281 34.564 C 238.218 34.727,238.171 34.986,238.177 35.139 C 238.184 35.323,238.242 35.281,238.349 35.014 C 238.437 34.793,238.484 34.534,238.452 34.439 C 238.420 34.344,238.343 34.400,238.281 34.564 M361.220 35.875 C 359.812 37.630,359.221 38.452,359.571 38.170 C 359.740 38.034,360.036 37.684,360.230 37.392 C 360.425 37.100,360.978 36.367,361.461 35.764 C 361.944 35.160,362.306 34.667,362.265 34.667 C 362.224 34.667,361.754 35.211,361.220 35.875 M29.083 34.941 C 23.829 36.317,20.158 39.802,18.660 44.833 C 18.219 46.314,18.104 49.919,18.458 51.125 C 18.573 51.515,18.754 52.152,18.861 52.542 C 19.776 55.883,23.156 59.677,26.296 60.887 C 26.729 61.054,27.216 61.261,27.377 61.348 C 28.015 61.690,30.110 62.000,31.786 62.000 C 40.262 62.000,46.325 55.312,45.485 46.890 C 45.302 45.063,44.212 41.667,43.808 41.667 C 43.730 41.667,43.667 41.566,43.667 41.444 C 43.667 40.554,40.261 37.247,38.300 36.233 C 36.215 35.155,31.037 34.429,29.083 34.941 M136.085 35.327 C 131.771 36.758,129.196 39.166,127.261 43.579 C 124.818 49.147,127.483 56.853,132.986 60.135 C 133.630 60.519,134.231 60.833,134.323 60.833 C 134.415 60.833,134.736 60.971,135.037 61.138 C 137.548 62.540,142.951 62.270,146.421 60.570 C 151.753 57.959,155.257 50.321,153.486 45.167 C 151.703 39.976,149.023 37.044,144.601 35.448 C 142.454 34.673,138.236 34.613,136.085 35.327 M35.417 35.598 C 37.469 36.299,38.167 36.626,39.417 37.469 C 40.895 38.466,42.288 39.856,42.953 41.000 C 43.193 41.412,43.488 41.867,43.609 42.010 C 43.730 42.154,44.020 42.791,44.253 43.427 C 46.783 50.308,44.034 57.271,37.512 60.507 C 36.966 60.778,36.438 61.000,36.340 61.000 C 36.242 61.000,36.032 61.070,35.873 61.156 C 35.200 61.518,31.908 61.877,31.015 61.685 C 30.539 61.583,29.922 61.500,29.643 61.500 C 29.040 61.500,26.873 60.866,26.740 60.650 C 26.689 60.568,26.540 60.500,26.410 60.500 C 26.280 60.500,25.763 60.237,25.261 59.917 C 24.760 59.596,24.268 59.333,24.169 59.333 C 24.070 59.333,23.351 58.679,22.571 57.880 C 14.821 49.935,18.902 37.256,29.833 35.321 C 31.050 35.105,34.472 35.275,35.417 35.598 M143.257 35.507 C 143.528 35.612,144.158 35.807,144.656 35.939 C 147.968 36.816,152.209 41.292,152.846 44.583 C 152.917 44.950,153.063 45.587,153.169 46.000 C 153.397 46.879,153.306 51.027,153.045 51.667 C 152.952 51.896,152.740 52.496,152.575 53.000 C 151.469 56.375,148.507 59.403,144.917 60.826 C 144.733 60.899,144.379 61.041,144.128 61.141 C 142.369 61.846,137.799 61.843,136.028 61.136 C 133.285 60.040,132.189 59.375,130.741 57.926 C 129.663 56.848,128.500 55.300,128.500 54.943 C 128.500 54.791,128.425 54.667,128.333 54.667 C 128.242 54.667,128.167 54.565,128.167 54.441 C 128.167 54.318,127.985 53.874,127.762 53.456 C 127.540 53.038,127.306 52.351,127.243 51.929 C 127.180 51.508,127.062 51.122,126.981 51.071 C 126.773 50.943,126.792 45.879,127.000 45.750 C 127.092 45.693,127.167 45.419,127.167 45.140 C 127.167 44.638,127.303 44.270,128.142 42.500 C 129.912 38.766,133.442 36.177,138.000 35.271 C 138.725 35.127,142.744 35.307,143.257 35.507 M237.848 36.182 C 237.736 36.558,237.674 36.896,237.712 36.934 C 237.749 36.971,237.872 36.694,237.985 36.318 C 238.098 35.942,238.159 35.604,238.122 35.566 C 238.084 35.529,237.961 35.806,237.848 36.182 M255.632 35.633 C 255.377 35.683,254.994 36.346,255.007 36.716 C 255.010 36.826,255.121 36.667,255.254 36.362 L 255.495 35.808 259.655 35.862 C 261.943 35.892,263.670 35.863,263.492 35.797 C 263.177 35.681,256.137 35.534,255.632 35.633 M265.226 36.539 C 266.373 37.319,267.000 38.118,267.309 39.190 C 267.397 39.498,267.477 39.616,267.485 39.453 C 267.527 38.630,266.378 37.018,265.434 36.572 C 265.149 36.438,265.056 36.423,265.226 36.539 M254.608 38.108 C 254.447 38.711,254.348 39.237,254.387 39.276 C 254.427 39.316,254.592 38.856,254.755 38.255 C 254.918 37.654,255.017 37.128,254.975 37.087 C 254.934 37.045,254.769 37.505,254.608 38.108 M338.190 37.167 C 338.190 37.304,338.255 37.567,338.333 37.750 C 338.424 37.960,338.477 37.991,338.477 37.833 C 338.477 37.696,338.412 37.433,338.333 37.250 C 338.243 37.040,338.190 37.009,338.190 37.167 M357.343 37.078 C 357.338 37.166,357.441 37.541,357.572 37.911 C 357.703 38.281,357.852 38.781,357.904 39.023 C 358.051 39.716,358.422 39.720,358.932 39.032 L 359.389 38.417 358.853 38.914 C 358.303 39.424,358.025 39.344,357.993 38.667 C 357.979 38.368,357.356 36.846,357.343 37.078 M237.342 38.120 C 237.230 38.558,237.070 39.089,236.986 39.300 C 236.792 39.787,236.793 40.172,236.987 39.833 C 237.173 39.510,237.692 37.470,237.609 37.387 C 237.574 37.352,237.454 37.682,237.342 38.120 M295.015 38.125 C 294.605 38.724,294.580 38.795,294.912 38.417 C 295.353 37.913,295.731 37.333,295.617 37.333 C 295.584 37.333,295.313 37.690,295.015 38.125 M284.939 38.773 C 284.880 39.203,284.864 39.587,284.904 39.626 C 284.943 39.665,285.027 39.349,285.091 38.924 C 285.155 38.499,285.171 38.115,285.127 38.071 C 285.083 38.027,284.998 38.343,284.939 38.773 M325.867 38.583 C 325.862 38.858,325.918 39.421,325.991 39.833 C 326.090 40.387,326.127 40.452,326.133 40.083 C 326.138 39.808,326.082 39.246,326.009 38.833 C 325.910 38.280,325.873 38.215,325.867 38.583 M293.961 39.561 C 293.753 39.869,293.105 40.825,292.519 41.686 C 291.322 43.446,291.437 43.473,292.680 41.723 C 293.700 40.286,294.521 39.000,294.418 39.000 C 294.374 39.000,294.168 39.252,293.961 39.561 M338.841 39.356 C 338.837 39.506,338.943 39.881,339.077 40.189 C 339.392 40.914,339.399 40.614,339.088 39.750 C 338.956 39.383,338.845 39.206,338.841 39.356 M375.667 40.417 C 375.451 40.646,375.345 40.831,375.429 40.828 C 375.572 40.823,376.259 40.000,376.120 40.000 C 376.086 40.000,375.882 40.188,375.667 40.417 M236.515 41.015 C 236.402 41.391,236.341 41.730,236.378 41.767 C 236.416 41.805,236.539 41.528,236.652 41.152 C 236.764 40.775,236.826 40.437,236.788 40.399 C 236.751 40.362,236.628 40.639,236.515 41.015 M253.762 41.095 C 253.701 41.339,253.688 41.577,253.734 41.623 C 253.780 41.668,253.867 41.506,253.929 41.262 C 253.990 41.018,254.003 40.780,253.957 40.734 C 253.911 40.689,253.823 40.851,253.762 41.095 M326.200 41.000 C 326.196 41.229,326.290 42.017,326.409 42.750 C 326.529 43.483,326.631 43.858,326.636 43.583 C 326.641 43.308,326.547 42.521,326.427 41.833 C 326.307 41.146,326.205 40.771,326.200 41.000 M284.437 41.090 C 284.380 41.239,284.340 41.486,284.348 41.639 C 284.356 41.792,284.428 41.695,284.509 41.425 C 284.666 40.899,284.610 40.639,284.437 41.090 M373.806 42.625 C 373.042 43.519,372.203 44.494,371.941 44.792 C 371.679 45.090,371.537 45.333,371.625 45.333 C 371.712 45.333,372.128 44.902,372.548 44.375 C 372.968 43.848,373.508 43.192,373.749 42.917 C 373.990 42.642,374.343 42.229,374.534 42.000 C 374.725 41.771,374.994 41.452,375.133 41.292 C 375.272 41.131,375.343 41.000,375.291 41.000 C 375.239 41.000,374.571 41.731,373.806 42.625 M267.271 41.854 C 267.132 42.549,267.267 42.684,267.417 42.000 C 267.480 41.712,267.497 41.441,267.455 41.399 C 267.412 41.357,267.329 41.561,267.271 41.854 M253.429 42.262 C 253.367 42.506,253.349 42.738,253.389 42.777 C 253.428 42.817,253.510 42.649,253.571 42.405 C 253.633 42.161,253.651 41.929,253.611 41.889 C 253.572 41.850,253.490 42.018,253.429 42.262 M236.095 42.429 C 236.034 42.673,236.021 42.910,236.067 42.956 C 236.113 43.002,236.201 42.839,236.262 42.595 C 236.323 42.351,236.336 42.114,236.290 42.068 C 236.244 42.022,236.157 42.184,236.095 42.429 M284.083 42.333 C 284.021 42.530,284.007 42.729,284.053 42.775 C 284.099 42.821,284.187 42.697,284.250 42.500 C 284.313 42.303,284.326 42.104,284.280 42.058 C 284.235 42.012,284.146 42.136,284.083 42.333 M266.776 43.451 C 266.053 45.175,264.718 46.752,263.284 47.579 C 262.845 47.833,262.520 48.075,262.562 48.118 C 262.704 48.260,264.409 47.063,265.176 46.283 C 265.878 45.569,267.307 43.085,267.122 42.900 C 267.078 42.856,266.922 43.104,266.776 43.451 M283.704 43.542 C 283.421 44.326,283.460 44.539,283.761 43.846 C 283.897 43.532,283.986 43.208,283.959 43.126 C 283.931 43.044,283.817 43.231,283.704 43.542 M235.694 43.944 C 235.582 44.366,235.519 44.741,235.555 44.777 C 235.591 44.813,235.716 44.501,235.833 44.083 C 235.950 43.666,236.013 43.291,235.973 43.251 C 235.933 43.210,235.807 43.523,235.694 43.944 M291.000 43.833 C 290.804 44.108,290.705 44.333,290.780 44.332 C 290.855 44.332,291.044 44.107,291.201 43.832 C 291.566 43.190,291.458 43.191,291.000 43.833 M307.970 44.884 C 307.483 45.635,307.024 46.344,306.950 46.458 C 306.877 46.573,306.851 46.667,306.893 46.667 C 306.935 46.667,307.402 46.028,307.932 45.248 C 308.898 43.827,309.074 43.724,309.213 44.500 C 309.269 44.812,309.294 44.765,309.311 44.309 C 309.352 43.215,308.936 43.393,307.970 44.884 M252.867 44.287 C 252.582 45.240,252.634 45.556,252.935 44.697 C 253.073 44.301,253.160 43.897,253.127 43.798 C 253.094 43.699,252.977 43.919,252.867 44.287 M340.176 43.750 C 340.173 43.842,340.280 44.217,340.412 44.583 C 340.544 44.950,340.655 45.127,340.659 44.977 C 340.663 44.828,340.557 44.453,340.423 44.144 C 340.289 43.836,340.178 43.658,340.176 43.750 M326.699 44.500 C 326.695 44.729,326.751 45.254,326.825 45.667 L 326.958 46.417 326.959 45.750 C 326.960 45.383,326.903 44.858,326.833 44.583 C 326.718 44.130,326.705 44.122,326.699 44.500 M290.417 44.725 C 290.141 45.042,289.323 46.333,289.399 46.333 C 289.502 46.333,290.699 44.643,290.636 44.584 C 290.607 44.556,290.508 44.620,290.417 44.725 M235.250 45.500 C 235.187 45.697,235.174 45.896,235.220 45.942 C 235.265 45.988,235.354 45.864,235.417 45.667 C 235.479 45.470,235.493 45.271,235.447 45.225 C 235.401 45.179,235.313 45.303,235.250 45.500 M282.946 45.421 C 282.884 45.602,282.788 45.862,282.733 46.000 C 282.677 46.137,282.758 46.079,282.912 45.871 C 283.066 45.662,283.162 45.402,283.125 45.292 C 283.088 45.180,283.009 45.236,282.946 45.421 M309.383 46.000 C 309.383 46.504,309.415 46.710,309.453 46.458 C 309.491 46.206,309.491 45.794,309.453 45.542 C 309.415 45.290,309.383 45.496,309.383 46.000 M340.672 45.500 C 340.672 45.637,340.744 45.862,340.833 46.000 C 340.977 46.222,340.995 46.222,340.995 46.000 C 340.995 45.862,340.922 45.637,340.833 45.500 C 340.690 45.278,340.672 45.278,340.672 45.500 M252.429 45.929 C 252.367 46.173,252.349 46.405,252.389 46.444 C 252.428 46.483,252.510 46.316,252.571 46.071 C 252.633 45.827,252.651 45.595,252.611 45.556 C 252.572 45.517,252.490 45.684,252.429 45.929 M234.861 46.944 C 234.748 47.366,234.686 47.741,234.722 47.777 C 234.758 47.813,234.883 47.501,235.000 47.083 C 235.117 46.666,235.180 46.291,235.139 46.251 C 235.099 46.210,234.974 46.523,234.861 46.944 M341.015 46.500 C 341.010 46.637,341.113 47.050,341.245 47.417 C 341.377 47.783,341.483 47.933,341.480 47.750 C 341.473 47.343,341.029 46.149,341.015 46.500 M289.047 46.708 C 288.522 47.391,287.320 49.208,287.531 49.000 C 287.860 48.676,289.386 46.500,289.285 46.500 C 289.242 46.500,289.135 46.594,289.047 46.708 M327.042 47.083 C 327.044 47.450,327.078 47.580,327.118 47.373 C 327.158 47.166,327.156 46.866,327.115 46.706 C 327.073 46.547,327.040 46.717,327.042 47.083 M370.073 47.042 L 369.583 47.583 370.125 47.094 C 370.630 46.638,370.743 46.500,370.615 46.500 C 370.586 46.500,370.342 46.744,370.073 47.042 M252.186 46.861 C 252.175 47.014,252.124 47.277,252.071 47.445 C 251.980 47.734,251.985 47.735,252.165 47.453 C 252.270 47.290,252.322 47.027,252.281 46.870 C 252.213 46.612,252.203 46.611,252.186 46.861 M281.828 47.796 C 281.602 48.224,281.239 48.836,281.021 49.157 C 280.789 49.501,280.740 49.647,280.903 49.512 C 281.213 49.254,282.408 47.186,282.306 47.084 C 282.270 47.047,282.055 47.368,281.828 47.796 M309.534 47.500 C 309.531 47.821,309.588 48.458,309.659 48.917 L 309.789 49.750 309.801 49.000 C 309.808 48.587,309.752 47.950,309.676 47.583 L 309.538 46.917 309.534 47.500 M369.216 48.063 C 362.766 55.481,361.659 56.879,361.676 57.583 C 361.681 57.778,361.802 57.618,361.967 57.199 C 362.259 56.459,363.072 55.374,364.667 53.597 C 365.171 53.035,365.846 52.246,366.167 51.844 C 366.488 51.441,366.825 51.030,366.917 50.931 C 367.323 50.490,369.282 48.222,369.484 47.958 C 369.815 47.526,369.614 47.605,369.216 48.063 M327.281 48.917 C 327.333 49.558,327.403 50.115,327.437 50.153 C 327.553 50.280,327.462 48.757,327.325 48.250 C 327.239 47.935,327.223 48.181,327.281 48.917 M305.167 49.167 C 304.793 49.717,304.525 50.167,304.571 50.167 C 304.617 50.167,304.960 49.717,305.333 49.167 C 305.707 48.617,305.975 48.167,305.929 48.167 C 305.883 48.167,305.540 48.617,305.167 49.167 M260.167 48.758 C 259.597 48.922,259.522 48.976,259.856 48.987 C 260.097 48.994,260.547 48.890,260.856 48.757 C 261.532 48.463,261.195 48.464,260.167 48.758 M252.375 49.115 C 252.535 49.157,252.798 49.157,252.958 49.115 C 253.119 49.073,252.987 49.039,252.667 49.039 C 252.346 49.039,252.215 49.073,252.375 49.115 M255.125 49.122 C 255.515 49.157,256.152 49.157,256.542 49.122 C 256.931 49.087,256.612 49.058,255.833 49.058 C 255.054 49.058,254.735 49.087,255.125 49.122 M234.027 49.810 C 233.920 50.165,233.839 50.559,233.845 50.686 C 233.851 50.813,233.968 50.552,234.105 50.107 C 234.242 49.662,234.324 49.268,234.287 49.231 C 234.250 49.195,234.133 49.455,234.027 49.810 M286.880 49.792 C 286.718 50.044,286.454 50.395,286.293 50.573 C 286.132 50.751,286.000 50.945,286.000 51.006 C 286.000 51.066,285.828 51.315,285.618 51.559 C 285.184 52.064,284.607 53.000,284.729 53.000 C 284.813 53.000,286.522 50.632,287.039 49.799 C 287.198 49.543,287.294 49.333,287.251 49.333 C 287.209 49.333,287.042 49.540,286.880 49.792 M280.223 50.292 C 280.067 50.544,279.784 50.938,279.594 51.167 L 279.250 51.583 279.667 51.218 C 280.080 50.856,280.767 49.833,280.597 49.833 C 280.548 49.833,280.380 50.040,280.223 50.292 M309.869 50.667 C 309.865 50.987,309.921 51.625,309.992 52.083 C 310.119 52.895,310.122 52.899,310.132 52.250 C 310.137 51.883,310.082 51.246,310.009 50.833 C 309.886 50.143,309.875 50.129,309.869 50.667 M327.539 50.750 C 327.539 51.025,327.597 51.475,327.667 51.750 L 327.794 52.250 327.794 51.750 C 327.794 51.475,327.737 51.025,327.667 50.750 L 327.539 50.250 327.539 50.750 M303.500 51.667 C 303.304 51.942,303.181 52.167,303.227 52.167 C 303.273 52.167,303.471 51.942,303.667 51.667 C 303.862 51.392,303.985 51.167,303.939 51.167 C 303.894 51.167,303.696 51.392,303.500 51.667 M277.750 53.188 C 276.925 54.018,275.744 55.075,275.125 55.538 C 273.970 56.401,273.645 56.733,274.458 56.217 C 275.459 55.583,278.100 53.191,279.069 52.042 C 279.702 51.291,279.217 51.712,277.750 53.188 M342.692 52.083 C 342.692 52.267,342.793 52.679,342.917 53.000 C 343.058 53.367,343.141 53.460,343.141 53.250 C 343.141 53.067,343.040 52.654,342.917 52.333 C 342.775 51.966,342.692 51.874,342.692 52.083 M301.770 54.279 C 301.065 55.352,300.526 56.328,300.572 56.448 C 300.698 56.776,310.209 56.767,310.481 56.439 C 310.615 56.278,310.624 55.950,310.512 55.314 L 310.354 54.417 310.365 55.250 C 310.371 55.708,310.367 56.177,310.355 56.292 C 310.333 56.502,300.667 56.621,300.667 56.411 C 300.667 56.282,302.663 53.139,302.966 52.791 C 303.106 52.630,303.182 52.460,303.136 52.413 C 303.089 52.367,302.475 53.207,301.770 54.279 M327.875 52.917 C 327.877 53.283,327.911 53.414,327.951 53.206 C 327.991 52.999,327.990 52.699,327.948 52.540 C 327.906 52.380,327.874 52.550,327.875 52.917 M283.375 54.792 C 282.021 56.722,281.629 57.333,281.744 57.333 C 281.791 57.333,282.029 57.015,282.273 56.625 C 282.517 56.235,282.764 55.879,282.823 55.833 C 283.001 55.694,284.680 53.167,284.595 53.167 C 284.551 53.167,284.002 53.898,283.375 54.792 M310.209 53.750 C 310.211 54.117,310.245 54.247,310.285 54.040 C 310.324 53.832,310.323 53.532,310.281 53.373 C 310.239 53.214,310.207 53.383,310.209 53.750 M328.041 54.250 C 328.040 54.617,328.097 55.142,328.167 55.417 C 328.350 56.138,328.356 55.351,328.175 54.333 L 328.042 53.583 328.041 54.250 M232.750 54.333 C 232.687 54.530,232.674 54.729,232.720 54.775 C 232.765 54.821,232.854 54.697,232.917 54.500 C 232.979 54.303,232.993 54.104,232.947 54.058 C 232.901 54.012,232.813 54.136,232.750 54.333 M343.524 54.750 C 343.525 55.098,343.967 56.375,343.985 56.083 C 343.990 55.992,343.889 55.579,343.759 55.167 C 343.629 54.754,343.523 54.567,343.524 54.750 M328.448 57.250 C 328.499 57.892,328.569 58.448,328.604 58.486 C 328.720 58.614,328.649 57.424,328.501 56.750 C 328.388 56.238,328.376 56.353,328.448 57.250 M271.750 57.675 C 270.925 58.126,270.325 58.495,270.417 58.495 C 270.609 58.495,273.005 57.216,273.242 56.986 C 273.506 56.731,273.310 56.821,271.750 57.675 M231.846 57.609 C 231.576 58.582,231.655 58.864,231.938 57.941 C 232.075 57.496,232.150 57.095,232.106 57.050 C 232.061 57.005,231.944 57.257,231.846 57.609 M343.686 57.683 C 343.584 57.976,343.505 58.336,343.511 58.483 C 343.517 58.630,343.627 58.415,343.754 58.007 C 344.021 57.151,343.964 56.884,343.686 57.683 M281.167 58.000 C 280.971 58.275,280.848 58.500,280.894 58.500 C 280.940 58.500,281.138 58.275,281.333 58.000 C 281.529 57.725,281.652 57.500,281.606 57.500 C 281.560 57.500,281.362 57.725,281.167 58.000 M361.200 59.245 C 361.003 59.970,360.869 60.591,360.902 60.624 C 361.001 60.723,361.690 58.321,361.622 58.115 C 361.587 58.011,361.397 58.519,361.200 59.245 M269.500 58.750 C 269.271 58.881,269.158 58.988,269.250 58.988 C 269.342 58.988,269.604 58.881,269.833 58.750 C 270.063 58.619,270.175 58.512,270.083 58.512 C 269.992 58.512,269.729 58.619,269.500 58.750 M280.333 59.167 C 280.138 59.442,280.015 59.667,280.061 59.667 C 280.106 59.667,280.304 59.442,280.500 59.167 C 280.696 58.892,280.819 58.667,280.773 58.667 C 280.727 58.667,280.529 58.892,280.333 59.167 M343.000 60.167 C 342.790 60.904,342.655 61.543,342.699 61.588 C 342.743 61.632,342.943 61.057,343.143 60.310 C 343.343 59.562,343.478 58.923,343.444 58.889 C 343.410 58.854,343.210 59.429,343.000 60.167 M265.772 59.889 C 265.051 60.080,264.535 60.262,264.625 60.292 C 264.793 60.348,267.352 59.703,267.484 59.572 C 267.614 59.441,267.101 59.536,265.772 59.889 M278.961 61.125 C 277.984 62.528,277.678 63.022,277.954 62.750 C 278.372 62.339,280.078 59.833,279.940 59.833 C 279.897 59.833,279.456 60.415,278.961 61.125 M328.865 60.167 C 328.861 60.396,328.918 60.921,328.991 61.333 L 329.125 62.083 329.126 61.417 C 329.127 61.050,329.070 60.525,329.000 60.250 C 328.885 59.797,328.872 59.789,328.865 60.167 M231.015 60.682 C 230.902 61.058,230.841 61.396,230.878 61.434 C 230.916 61.471,231.039 61.194,231.152 60.818 C 231.264 60.442,231.326 60.104,231.288 60.066 C 231.251 60.029,231.128 60.306,231.015 60.682 M263.083 60.500 C 262.630 60.615,262.622 60.628,263.000 60.635 C 263.229 60.640,263.567 60.579,263.750 60.500 C 264.161 60.323,263.777 60.323,263.083 60.500 M260.500 60.833 L 259.583 60.946 260.333 60.963 C 260.746 60.973,261.383 60.919,261.750 60.843 C 262.592 60.669,261.887 60.663,260.500 60.833 M360.513 61.679 C 360.394 62.142,360.335 62.557,360.380 62.602 C 360.425 62.648,360.554 62.302,360.667 61.833 C 360.779 61.365,360.839 60.950,360.800 60.911 C 360.760 60.871,360.631 61.217,360.513 61.679 M251.208 61.125 C 252.744 61.152,255.256 61.152,256.792 61.125 C 258.327 61.097,257.071 61.075,254.000 61.075 C 250.929 61.075,249.673 61.097,251.208 61.125 M342.417 62.167 C 342.354 62.364,342.340 62.563,342.386 62.608 C 342.432 62.654,342.521 62.530,342.583 62.333 C 342.646 62.136,342.660 61.937,342.614 61.892 C 342.568 61.846,342.479 61.970,342.417 62.167 M329.209 62.750 C 329.211 63.117,329.245 63.247,329.285 63.040 C 329.324 62.832,329.323 62.532,329.281 62.373 C 329.239 62.214,329.207 62.383,329.209 62.750 M230.262 63.262 C 230.201 63.506,230.188 63.743,230.234 63.789 C 230.280 63.835,230.367 63.673,230.429 63.429 C 230.490 63.184,230.503 62.947,230.457 62.901 C 230.411 62.855,230.323 63.018,230.262 63.262 M342.028 63.611 C 341.915 64.033,341.852 64.408,341.888 64.444 C 341.924 64.480,342.050 64.168,342.167 63.750 C 342.284 63.332,342.346 62.958,342.306 62.917 C 342.266 62.877,342.141 63.189,342.028 63.611 M360.095 63.262 C 360.034 63.506,360.016 63.738,360.055 63.777 C 360.094 63.817,360.177 63.649,360.238 63.405 C 360.299 63.161,360.317 62.929,360.278 62.889 C 360.239 62.850,360.157 63.018,360.095 63.262 M277.333 63.542 C 277.087 63.877,277.047 63.993,277.227 63.847 C 277.501 63.625,277.914 63.000,277.787 63.000 C 277.755 63.000,277.551 63.244,277.333 63.542 M247.519 63.528 C 247.509 63.681,247.457 63.943,247.404 64.111 C 247.313 64.401,247.318 64.401,247.499 64.120 C 247.603 63.956,247.655 63.694,247.614 63.536 C 247.546 63.278,247.537 63.278,247.519 63.528 M329.365 63.833 C 329.361 64.063,329.418 64.587,329.491 65.000 L 329.625 65.750 329.626 65.083 C 329.627 64.717,329.570 64.192,329.500 63.917 C 329.385 63.464,329.372 63.456,329.365 63.833 M359.794 64.333 C 359.742 64.563,359.539 65.303,359.343 65.980 C 359.147 66.656,359.015 67.238,359.050 67.272 C 359.084 67.307,359.209 67.016,359.327 66.626 C 359.445 66.236,359.650 65.560,359.784 65.124 C 359.918 64.688,359.996 64.238,359.958 64.124 C 359.920 64.010,359.846 64.104,359.794 64.333 M276.337 64.958 C 274.952 66.913,273.658 68.887,273.962 68.583 C 274.231 68.314,276.405 65.195,276.895 64.375 C 277.195 63.874,276.850 64.234,276.337 64.958 M341.595 65.095 C 341.534 65.339,341.521 65.577,341.567 65.623 C 341.613 65.668,341.701 65.506,341.762 65.262 C 341.823 65.018,341.836 64.780,341.790 64.734 C 341.744 64.689,341.657 64.851,341.595 65.095 M229.346 66.679 C 229.228 67.142,229.163 67.551,229.201 67.590 C 229.240 67.629,229.369 67.283,229.487 66.821 C 229.606 66.358,229.671 65.949,229.632 65.910 C 229.593 65.871,229.465 66.217,229.346 66.679 M341.179 66.679 C 341.061 67.142,340.996 67.551,341.035 67.590 C 341.073 67.629,341.202 67.283,341.321 66.821 C 341.439 66.358,341.504 65.949,341.465 65.910 C 341.427 65.871,341.298 66.217,341.179 66.679 M329.696 66.333 C 329.694 66.563,329.796 67.313,329.923 68.000 L 330.155 69.250 330.067 68.167 C 329.967 66.940,329.704 65.636,329.696 66.333 M246.595 66.762 C 246.534 67.006,246.521 67.243,246.567 67.289 C 246.613 67.335,246.701 67.173,246.762 66.929 C 246.823 66.684,246.836 66.447,246.790 66.401 C 246.744 66.355,246.657 66.518,246.595 66.762 M358.532 68.865 C 358.324 69.605,358.184 70.240,358.220 70.275 C 358.256 70.311,358.457 69.737,358.667 69.000 C 358.877 68.263,359.017 67.628,358.979 67.590 C 358.940 67.551,358.739 68.125,358.532 68.865 M292.833 68.107 C 292.612 68.170,291.705 69.451,289.559 72.731 C 289.206 73.270,288.742 73.972,288.527 74.291 C 288.313 74.610,288.208 74.828,288.293 74.775 C 288.449 74.679,288.914 73.997,291.241 70.457 C 291.949 69.378,292.671 68.420,292.844 68.328 C 293.292 68.088,311.327 68.121,311.618 68.362 C 311.736 68.460,311.846 68.850,311.861 69.229 L 311.889 69.917 311.956 69.275 C 312.094 67.942,312.656 68.015,302.273 68.025 C 297.219 68.031,292.971 68.067,292.833 68.107 M246.095 68.595 C 246.034 68.839,246.021 69.077,246.067 69.123 C 246.113 69.168,246.201 69.006,246.262 68.762 C 246.323 68.518,246.336 68.280,246.290 68.234 C 246.244 68.189,246.157 68.351,246.095 68.595 M228.513 69.679 C 228.394 70.142,228.329 70.551,228.368 70.590 C 228.407 70.629,228.535 70.283,228.654 69.821 C 228.772 69.358,228.837 68.949,228.799 68.910 C 228.760 68.871,228.631 69.217,228.513 69.679 M273.300 69.292 C 273.023 69.614,271.758 71.460,271.276 72.248 C 270.666 73.243,271.476 72.221,272.562 70.625 C 273.617 69.075,273.850 68.654,273.300 69.292 M245.708 69.996 C 245.415 70.934,245.464 71.232,245.768 70.364 C 245.907 69.968,245.997 69.573,245.968 69.487 C 245.939 69.401,245.822 69.630,245.708 69.996 M330.279 70.417 C 330.332 70.967,330.403 71.448,330.438 71.486 C 330.559 71.621,330.465 70.244,330.325 69.833 C 330.233 69.563,330.217 69.769,330.279 70.417 M340.271 69.756 C 340.213 69.905,340.173 70.152,340.181 70.305 C 340.189 70.458,340.261 70.362,340.342 70.092 C 340.499 69.566,340.444 69.305,340.271 69.756 M312.037 70.833 C 312.035 71.154,312.090 71.829,312.160 72.333 L 312.286 73.250 312.298 72.500 C 312.304 72.087,312.249 71.412,312.175 71.000 C 312.053 70.313,312.041 70.299,312.037 70.833 M357.929 70.929 C 357.867 71.173,357.855 71.410,357.900 71.456 C 357.946 71.502,358.034 71.339,358.095 71.095 C 358.157 70.851,358.169 70.614,358.123 70.568 C 358.078 70.522,357.990 70.684,357.929 70.929 M339.929 71.095 C 339.867 71.339,339.849 71.571,339.889 71.611 C 339.928 71.650,340.010 71.482,340.071 71.238 C 340.133 70.994,340.151 70.762,340.111 70.723 C 340.072 70.683,339.990 70.851,339.929 71.095 M228.083 71.167 C 228.021 71.364,228.007 71.563,228.053 71.608 C 228.099 71.654,228.187 71.530,228.250 71.333 C 228.313 71.136,228.326 70.937,228.280 70.892 C 228.235 70.846,228.146 70.970,228.083 71.167 M330.529 72.167 C 330.524 72.487,330.581 73.050,330.657 73.417 L 330.795 74.083 330.805 73.500 C 330.810 73.179,330.752 72.617,330.676 72.250 L 330.538 71.583 330.529 72.167 M357.528 72.444 C 357.415 72.866,357.352 73.241,357.388 73.277 C 357.424 73.313,357.550 73.001,357.667 72.583 C 357.784 72.166,357.846 71.791,357.806 71.751 C 357.766 71.710,357.641 72.023,357.528 72.444 M227.793 72.167 C 227.740 72.396,227.532 73.164,227.330 73.873 C 226.765 75.859,225.891 75.676,235.704 75.627 L 244.250 75.583 244.694 74.250 C 244.938 73.517,245.140 72.729,245.141 72.500 C 245.143 72.236,245.066 72.358,244.932 72.833 C 244.815 73.246,244.590 74.015,244.431 74.542 L 244.143 75.500 235.655 75.500 C 227.780 75.500,227.167 75.480,227.167 75.217 C 227.167 75.061,227.358 74.305,227.593 73.537 C 227.827 72.769,227.990 72.052,227.954 71.945 C 227.918 71.838,227.845 71.938,227.793 72.167 M339.429 72.929 C 339.367 73.173,339.349 73.405,339.389 73.444 C 339.428 73.483,339.510 73.316,339.571 73.071 C 339.633 72.827,339.651 72.595,339.611 72.556 C 339.572 72.517,339.490 72.684,339.429 72.929 M270.076 73.935 C 268.782 75.750,267.929 75.577,278.431 75.626 L 287.612 75.669 287.931 75.293 C 288.250 74.917,288.250 74.917,287.904 75.208 C 287.553 75.503,269.333 75.687,269.333 75.395 C 269.333 75.338,269.710 74.738,270.171 74.062 C 271.211 72.535,271.142 72.442,270.076 73.935 M312.379 74.000 C 312.379 74.412,312.411 74.581,312.451 74.375 C 312.491 74.169,312.491 73.831,312.451 73.625 C 312.411 73.419,312.379 73.587,312.379 74.000 M339.016 74.369 C 338.618 75.773,337.896 75.667,347.822 75.667 C 357.426 75.667,357.008 75.706,356.998 74.803 C 356.996 74.682,356.900 74.771,356.784 75.000 L 356.574 75.417 347.787 75.460 L 339.000 75.503 339.000 75.157 C 339.000 74.967,339.080 74.662,339.177 74.480 C 339.275 74.298,339.329 74.022,339.297 73.866 C 339.265 73.711,339.139 73.937,339.016 74.369 M330.850 74.792 L 330.833 75.500 321.828 75.500 L 312.823 75.500 312.663 75.125 C 312.506 74.755,312.504 74.756,312.543 75.167 L 312.583 75.583 321.731 75.583 C 331.908 75.583,331.327 75.651,330.989 74.500 C 330.888 74.157,330.864 74.209,330.850 74.792 M4.997 80.087 C 4.845 80.270,4.817 80.678,4.898 81.545 C 5.160 84.371,7.417 87.111,10.500 88.348 L 11.917 88.917 84.833 88.962 C 167.374 89.013,160.775 89.150,163.417 87.330 C 165.800 85.688,168.104 81.082,167.029 80.109 C 166.579 79.702,5.334 79.680,4.997 80.087 M166.572 80.329 C 167.034 80.505,167.189 81.411,166.820 81.780 C 166.721 81.879,166.572 82.266,166.488 82.639 C 165.956 85.006,163.952 87.003,160.917 88.192 L 159.917 88.583 85.743 88.583 C 16.762 88.583,11.539 88.564,11.144 88.305 C 10.911 88.152,10.427 87.948,10.068 87.850 C 7.530 87.161,3.990 81.566,5.278 80.278 C 5.462 80.094,166.087 80.145,166.572 80.329 " stroke="none" fill="#f59999" fill-rule="evenodd"></path></g></svg>